<svg width="30" height="30" viewBox="0 0 30 30" fill="none" xmlns="http://www.w3.org/2000/svg">
<path fill-rule="evenodd" clip-rule="evenodd" d="M15 0C15.306 0 15.5995 0.131696 15.8159 0.366117C16.0323 0.600537 16.1538 0.918479 16.1538 1.25V28.75C16.1538 29.0815 16.0323 29.3995 15.8159 29.6339C15.5995 29.8683 15.306 30 15 30C14.694 30 14.4005 29.8683 14.1841 29.6339C13.9677 29.3995 13.8462 29.0815 13.8462 28.75V1.25C13.8462 0.918479 13.9677 0.600537 14.1841 0.366117C14.4005 0.131696 14.694 0 15 0ZM10.3846 5C10.6906 5 10.9841 5.1317 11.2005 5.36612C11.4169 5.60054 11.5385 5.91848 11.5385 6.25V23.75C11.5385 24.0815 11.4169 24.3995 11.2005 24.6339C10.9841 24.8683 10.6906 25 10.3846 25C10.0786 25 9.78511 24.8683 9.56872 24.6339C9.35233 24.3995 9.23077 24.0815 9.23077 23.75V6.25C9.23077 5.91848 9.35233 5.60054 9.56872 5.36612C9.78511 5.1317 10.0786 5 10.3846 5ZM19.6154 5C19.9214 5 20.2149 5.1317 20.4313 5.36612C20.6477 5.60054 20.7692 5.91848 20.7692 6.25V23.75C20.7692 24.0815 20.6477 24.3995 20.4313 24.6339C20.2149 24.8683 19.9214 25 19.6154 25C19.3094 25 19.0159 24.8683 18.7995 24.6339C18.5831 24.3995 18.4615 24.0815 18.4615 23.75V6.25C18.4615 5.91848 18.5831 5.60054 18.7995 5.36612C19.0159 5.1317 19.3094 5 19.6154 5ZM5.76923 8.75C6.07525 8.75 6.36873 8.8817 6.58512 9.11612C6.80151 9.35054 6.92308 9.66848 6.92308 10V20C6.92308 20.3315 6.80151 20.6495 6.58512 20.8839C6.36873 21.1183 6.07525 21.25 5.76923 21.25C5.46321 21.25 5.16973 21.1183 4.95334 20.8839C4.73695 20.6495 4.61538 20.3315 4.61538 20V10C4.61538 9.66848 4.73695 9.35054 4.95334 9.11612C5.16973 8.8817 5.46321 8.75 5.76923 8.75ZM24.2308 8.75C24.5368 8.75 24.8303 8.8817 25.0467 9.11612C25.2631 9.35054 25.3846 9.66848 25.3846 10V20C25.3846 20.3315 25.2631 20.6495 25.0467 20.8839C24.8303 21.1183 24.5368 21.25 24.2308 21.25C23.9247 21.25 23.6313 21.1183 23.4149 20.8839C23.1985 20.6495 23.0769 20.3315 23.0769 20V10C23.0769 9.66848 23.1985 9.35054 23.4149 9.11612C23.6313 8.8817 23.9247 8.75 24.2308 8.75ZM1.15385 11.25C1.45987 11.25 1.75335 11.3817 1.96974 11.6161C2.18613 11.8505 2.30769 12.1685 2.30769 12.5V17.5C2.30769 17.8315 2.18613 18.1495 1.96974 18.3839C1.75335 18.6183 1.45987 18.75 1.15385 18.75C0.847827 18.75 0.554342 18.6183 0.337954 18.3839C0.121566 18.1495 0 17.8315 0 17.5V12.5C0 12.1685 0.121566 11.8505 0.337954 11.6161C0.554342 11.3817 0.847827 11.25 1.15385 11.25ZM28.8462 11.25C29.1522 11.25 29.4457 11.3817 29.662 11.6161C29.8784 11.8505 30 12.1685 30 12.5V17.5C30 17.8315 29.8784 18.1495 29.662 18.3839C29.4457 18.6183 29.1522 18.75 28.8462 18.75C28.5401 18.75 28.2466 18.6183 28.0303 18.3839C27.8139 18.1495 27.6923 17.8315 27.6923 17.5V12.5C27.6923 12.1685 27.8139 11.8505 28.0303 11.6161C28.2466 11.3817 28.5401 11.25 28.8462 11.25Z" fill="url(#paint0_linear_317_57335)"/>
<defs>
<linearGradient id="paint0_linear_317_57335" x1="15" y1="0" x2="15" y2="30" gradientUnits="userSpaceOnUse">
<stop stop-color="#22E2F5"/>
<stop offset="1" stop-color="#0F466D"/>
</linearGradient>
</defs>
</svg>
