<svg width="24" height="22" viewBox="0 0 24 22" fill="none" xmlns="http://www.w3.org/2000/svg">
<mask id="path-1-outside-1_2372_32" maskUnits="userSpaceOnUse" x="0" y="-0.5" width="24" height="23" fill="black">
<rect fill="white" y="-0.5" width="24" height="23"/>
<path d="M14.5907 18.955C14.0493 18.955 13.538 18.7141 13.0437 18.4811C12.6651 18.3027 12.2738 18.1182 12.0001 18.1182C11.7265 18.1182 11.3351 18.3027 10.9566 18.4811C10.4622 18.7141 9.95101 18.955 9.4096 18.955C9.23966 18.955 9.07547 18.9305 8.92152 18.8822C8.18478 18.6511 7.81146 17.9675 7.48202 17.3643C7.29236 17.0171 7.09629 16.658 6.89494 16.5164C6.68822 16.3711 6.26966 16.3003 5.86485 16.2319C5.17443 16.1151 4.3918 15.9829 3.94153 15.3852C3.49521 14.7927 3.60504 14.0367 3.70189 13.3696C3.75951 12.9729 3.81915 12.5628 3.73786 12.3212C3.66391 12.1011 3.37567 11.8149 3.09685 11.5381C2.60108 11.0458 2.039 10.4877 2.039 9.72753C2.039 8.96731 2.60108 8.4093 3.09685 7.91696C3.37563 7.6402 3.66391 7.35405 3.7379 7.13387C3.81907 6.89231 3.75947 6.48221 3.70185 6.08551C3.60495 5.41849 3.49513 4.66246 3.9414 4.06991C4.3918 3.47213 5.17443 3.33987 5.86485 3.22314C6.26966 3.15473 6.68813 3.08403 6.89494 2.93861C7.09629 2.7971 7.29236 2.43801 7.48194 2.09072C7.81134 1.48754 8.18469 0.803872 8.92143 0.57273C9.07539 0.524451 9.23953 0.5 9.40951 0.5C9.95092 0.5 10.4622 0.740856 10.9566 0.973866C11.3352 1.15224 11.7265 1.33673 12.0001 1.33673C12.2737 1.33673 12.6651 1.15224 13.0436 0.973866C13.538 0.740897 14.0492 0.5 14.5906 0.5C14.7606 0.5 14.9248 0.524451 15.0787 0.57273C15.8155 0.803872 16.1888 1.48754 16.5182 2.09072C16.7078 2.43797 16.9039 2.79701 17.1052 2.93861C17.3121 3.08403 17.7306 3.15473 18.1353 3.22314C18.8257 3.33987 19.6084 3.47213 20.0586 4.06983C20.5049 4.66234 20.3951 5.41836 20.2983 6.08543C20.2406 6.48212 20.181 6.89227 20.2623 7.13383C20.3362 7.35401 20.6246 7.64016 20.9033 7.917C21.3991 8.4093 21.9611 8.96731 21.9611 9.72753C21.9611 10.4877 21.399 11.0458 20.9033 11.5381C20.6245 11.8148 20.3362 12.101 20.2622 12.3212C20.181 12.5627 20.2406 12.9729 20.2983 13.3695C20.3952 14.0365 20.505 14.7926 20.0587 15.3851C19.6083 15.9828 18.8257 16.1151 18.1353 16.2319C17.7305 16.3003 17.312 16.371 17.1052 16.5164C16.9039 16.6579 16.7078 17.017 16.5183 17.3643C16.1889 17.9675 15.8155 18.6511 15.0788 18.8823C14.9249 18.9305 14.7607 18.955 14.5907 18.955ZM12.0001 16.8856C12.5682 16.8856 13.0943 17.1335 13.603 17.3732C13.9672 17.5448 14.3438 17.7223 14.5907 17.7223C14.6271 17.7223 14.6579 17.7182 14.6847 17.7098C14.9287 17.6333 15.1736 17.1848 15.3897 16.7891C15.6473 16.3174 15.9136 15.8296 16.3544 15.5196C16.8006 15.206 17.3674 15.1102 17.9155 15.0176C18.3678 14.9411 18.8804 14.8545 19.0272 14.6597C19.1698 14.4703 19.0981 13.9765 19.0348 13.5408C18.957 13.0058 18.8766 12.4525 19.0488 11.9404C19.2146 11.4471 19.6082 11.0563 19.9888 10.6783C20.3152 10.3542 20.6852 9.9869 20.6852 9.72749C20.6852 9.46808 20.3152 9.10077 19.9888 8.77669C19.6081 8.39871 19.2145 8.00787 19.0488 7.51454C18.8767 7.00252 18.957 6.4492 19.0348 5.91415C19.098 5.47851 19.1698 4.98472 19.0271 4.7953C18.8804 4.60052 18.3678 4.51393 17.9155 4.43751C17.3674 4.34485 16.8006 4.24908 16.3544 3.93541C15.9136 3.62544 15.6472 3.13771 15.3896 2.666C15.1736 2.27034 14.9286 1.82188 14.6846 1.74525C14.6579 1.73687 14.6271 1.73276 14.5906 1.73276C14.3438 1.73276 13.9672 1.91022 13.603 2.08188C13.0943 2.32157 12.5683 2.56948 12.0001 2.56948C11.4319 2.56948 10.9059 2.32165 10.3971 2.08188C10.0329 1.91026 9.65633 1.73276 9.40951 1.73276C9.37308 1.73276 9.34227 1.73682 9.31545 1.74525C9.07148 1.8218 8.82656 2.27034 8.61047 2.666C8.35291 3.13771 8.08655 3.62544 7.64578 3.93541C7.19963 4.24908 6.63283 4.34485 6.08468 4.43751C5.63239 4.51393 5.11977 4.60061 4.97304 4.79538C4.83038 4.98481 4.90214 5.47856 4.96539 5.91423C5.04316 6.44929 5.12356 7.00261 4.95142 7.51462C4.78561 8.00792 4.39197 8.39876 4.01135 8.77669C3.68496 9.10077 3.315 9.46808 3.315 9.72757C3.315 9.98707 3.68496 10.3544 4.01135 10.6785C4.39206 11.0564 4.78569 11.4473 4.95142 11.9405C5.12347 12.4526 5.04316 13.0059 4.96539 13.541C4.90218 13.9766 4.83038 14.4704 4.97312 14.6598C5.11977 14.8546 5.63243 14.9412 6.08468 15.0176C6.63283 15.1103 7.19963 15.2061 7.64569 15.5197C8.08659 15.8297 8.35296 16.3174 8.61051 16.7891C8.8266 17.1848 9.07152 17.6333 9.3155 17.7099C9.34231 17.7183 9.37303 17.7224 9.40956 17.7224C9.65633 17.7224 10.0329 17.5449 10.3971 17.3733C10.9059 17.1335 11.4318 16.8856 12.0001 16.8856Z"/>
<path d="M12.0001 15.2748C8.834 15.2748 6.25815 12.7863 6.25815 9.72749C6.25815 6.66868 8.83395 4.18017 12.0001 4.18017C13.2819 4.18017 14.4945 4.57932 15.5067 5.33456C16.9272 6.39429 17.7419 7.99547 17.7419 9.72745C17.7419 12.7863 15.1661 15.2748 12.0001 15.2748ZM12.0001 5.41297C9.53757 5.41297 7.53415 7.34849 7.53415 9.72754C7.53415 12.1066 9.53757 14.0421 12.0001 14.0421C14.4626 14.0421 16.466 12.1066 16.466 9.72754C16.466 8.38033 15.8321 7.13487 14.7268 6.31027C13.9401 5.72328 12.9971 5.41297 12.0001 5.41297Z"/>
<path d="M5.87497 21.4999C5.52189 21.4999 5.21192 21.2943 5.08533 20.9762L4.10109 18.504L1.54213 17.5532C1.27392 17.4535 1.07824 17.2319 1.0186 16.9604C0.95896 16.6888 1.04468 16.4094 1.24788 16.2132L4.43119 13.1775L4.90214 15.3224L9.81345 18.0848L6.47219 21.2606C6.31243 21.4149 6.10038 21.4999 5.87497 21.4999ZM2.61863 16.6324L4.73776 17.4199C4.96059 17.5026 5.1378 17.6737 5.22348 17.8892L6.03838 19.9363L8.80428 17.3048L5.44036 15.4199L4.73776 14.4449L2.61863 16.6324Z"/>
<path d="M18.1245 21.5C17.9028 21.5 17.6886 21.4157 17.5279 21.2606L16.4112 20.1818L17.3135 19.3101L17.9617 19.9363L18.7767 17.889C18.8624 17.6736 19.0395 17.5025 19.2626 17.4197L21.3814 16.6324L19.2626 14.8349L19.4006 13.3725L22.7522 16.2133C22.9553 16.4096 23.041 16.6888 22.9814 16.9603C22.9218 17.2319 22.7261 17.4535 22.4579 17.5532L19.899 18.5041L18.9147 20.9763C18.8116 21.2353 18.5822 21.4244 18.3012 21.4821C18.2424 21.4941 18.1831 21.5 18.1245 21.5Z"/>
</mask>
<path d="M14.5907 18.955C14.0493 18.955 13.538 18.7141 13.0437 18.4811C12.6651 18.3027 12.2738 18.1182 12.0001 18.1182C11.7265 18.1182 11.3351 18.3027 10.9566 18.4811C10.4622 18.7141 9.95101 18.955 9.4096 18.955C9.23966 18.955 9.07547 18.9305 8.92152 18.8822C8.18478 18.6511 7.81146 17.9675 7.48202 17.3643C7.29236 17.0171 7.09629 16.658 6.89494 16.5164C6.68822 16.3711 6.26966 16.3003 5.86485 16.2319C5.17443 16.1151 4.3918 15.9829 3.94153 15.3852C3.49521 14.7927 3.60504 14.0367 3.70189 13.3696C3.75951 12.9729 3.81915 12.5628 3.73786 12.3212C3.66391 12.1011 3.37567 11.8149 3.09685 11.5381C2.60108 11.0458 2.039 10.4877 2.039 9.72753C2.039 8.96731 2.60108 8.4093 3.09685 7.91696C3.37563 7.6402 3.66391 7.35405 3.7379 7.13387C3.81907 6.89231 3.75947 6.48221 3.70185 6.08551C3.60495 5.41849 3.49513 4.66246 3.9414 4.06991C4.3918 3.47213 5.17443 3.33987 5.86485 3.22314C6.26966 3.15473 6.68813 3.08403 6.89494 2.93861C7.09629 2.7971 7.29236 2.43801 7.48194 2.09072C7.81134 1.48754 8.18469 0.803872 8.92143 0.57273C9.07539 0.524451 9.23953 0.5 9.40951 0.5C9.95092 0.5 10.4622 0.740856 10.9566 0.973866C11.3352 1.15224 11.7265 1.33673 12.0001 1.33673C12.2737 1.33673 12.6651 1.15224 13.0436 0.973866C13.538 0.740897 14.0492 0.5 14.5906 0.5C14.7606 0.5 14.9248 0.524451 15.0787 0.57273C15.8155 0.803872 16.1888 1.48754 16.5182 2.09072C16.7078 2.43797 16.9039 2.79701 17.1052 2.93861C17.3121 3.08403 17.7306 3.15473 18.1353 3.22314C18.8257 3.33987 19.6084 3.47213 20.0586 4.06983C20.5049 4.66234 20.3951 5.41836 20.2983 6.08543C20.2406 6.48212 20.181 6.89227 20.2623 7.13383C20.3362 7.35401 20.6246 7.64016 20.9033 7.917C21.3991 8.4093 21.9611 8.96731 21.9611 9.72753C21.9611 10.4877 21.399 11.0458 20.9033 11.5381C20.6245 11.8148 20.3362 12.101 20.2622 12.3212C20.181 12.5627 20.2406 12.9729 20.2983 13.3695C20.3952 14.0365 20.505 14.7926 20.0587 15.3851C19.6083 15.9828 18.8257 16.1151 18.1353 16.2319C17.7305 16.3003 17.312 16.371 17.1052 16.5164C16.9039 16.6579 16.7078 17.017 16.5183 17.3643C16.1889 17.9675 15.8155 18.6511 15.0788 18.8823C14.9249 18.9305 14.7607 18.955 14.5907 18.955ZM12.0001 16.8856C12.5682 16.8856 13.0943 17.1335 13.603 17.3732C13.9672 17.5448 14.3438 17.7223 14.5907 17.7223C14.6271 17.7223 14.6579 17.7182 14.6847 17.7098C14.9287 17.6333 15.1736 17.1848 15.3897 16.7891C15.6473 16.3174 15.9136 15.8296 16.3544 15.5196C16.8006 15.206 17.3674 15.1102 17.9155 15.0176C18.3678 14.9411 18.8804 14.8545 19.0272 14.6597C19.1698 14.4703 19.0981 13.9765 19.0348 13.5408C18.957 13.0058 18.8766 12.4525 19.0488 11.9404C19.2146 11.4471 19.6082 11.0563 19.9888 10.6783C20.3152 10.3542 20.6852 9.9869 20.6852 9.72749C20.6852 9.46808 20.3152 9.10077 19.9888 8.77669C19.6081 8.39871 19.2145 8.00787 19.0488 7.51454C18.8767 7.00252 18.957 6.4492 19.0348 5.91415C19.098 5.47851 19.1698 4.98472 19.0271 4.7953C18.8804 4.60052 18.3678 4.51393 17.9155 4.43751C17.3674 4.34485 16.8006 4.24908 16.3544 3.93541C15.9136 3.62544 15.6472 3.13771 15.3896 2.666C15.1736 2.27034 14.9286 1.82188 14.6846 1.74525C14.6579 1.73687 14.6271 1.73276 14.5906 1.73276C14.3438 1.73276 13.9672 1.91022 13.603 2.08188C13.0943 2.32157 12.5683 2.56948 12.0001 2.56948C11.4319 2.56948 10.9059 2.32165 10.3971 2.08188C10.0329 1.91026 9.65633 1.73276 9.40951 1.73276C9.37308 1.73276 9.34227 1.73682 9.31545 1.74525C9.07148 1.8218 8.82656 2.27034 8.61047 2.666C8.35291 3.13771 8.08655 3.62544 7.64578 3.93541C7.19963 4.24908 6.63283 4.34485 6.08468 4.43751C5.63239 4.51393 5.11977 4.60061 4.97304 4.79538C4.83038 4.98481 4.90214 5.47856 4.96539 5.91423C5.04316 6.44929 5.12356 7.00261 4.95142 7.51462C4.78561 8.00792 4.39197 8.39876 4.01135 8.77669C3.68496 9.10077 3.315 9.46808 3.315 9.72757C3.315 9.98707 3.68496 10.3544 4.01135 10.6785C4.39206 11.0564 4.78569 11.4473 4.95142 11.9405C5.12347 12.4526 5.04316 13.0059 4.96539 13.541C4.90218 13.9766 4.83038 14.4704 4.97312 14.6598C5.11977 14.8546 5.63243 14.9412 6.08468 15.0176C6.63283 15.1103 7.19963 15.2061 7.64569 15.5197C8.08659 15.8297 8.35296 16.3174 8.61051 16.7891C8.8266 17.1848 9.07152 17.6333 9.3155 17.7099C9.34231 17.7183 9.37303 17.7224 9.40956 17.7224C9.65633 17.7224 10.0329 17.5449 10.3971 17.3733C10.9059 17.1335 11.4318 16.8856 12.0001 16.8856Z" fill="#383D91"/>
<path d="M12.0001 15.2748C8.834 15.2748 6.25815 12.7863 6.25815 9.72749C6.25815 6.66868 8.83395 4.18017 12.0001 4.18017C13.2819 4.18017 14.4945 4.57932 15.5067 5.33456C16.9272 6.39429 17.7419 7.99547 17.7419 9.72745C17.7419 12.7863 15.1661 15.2748 12.0001 15.2748ZM12.0001 5.41297C9.53757 5.41297 7.53415 7.34849 7.53415 9.72754C7.53415 12.1066 9.53757 14.0421 12.0001 14.0421C14.4626 14.0421 16.466 12.1066 16.466 9.72754C16.466 8.38033 15.8321 7.13487 14.7268 6.31027C13.9401 5.72328 12.9971 5.41297 12.0001 5.41297Z" fill="#383D91"/>
<path d="M5.87497 21.4999C5.52189 21.4999 5.21192 21.2943 5.08533 20.9762L4.10109 18.504L1.54213 17.5532C1.27392 17.4535 1.07824 17.2319 1.0186 16.9604C0.95896 16.6888 1.04468 16.4094 1.24788 16.2132L4.43119 13.1775L4.90214 15.3224L9.81345 18.0848L6.47219 21.2606C6.31243 21.4149 6.10038 21.4999 5.87497 21.4999ZM2.61863 16.6324L4.73776 17.4199C4.96059 17.5026 5.1378 17.6737 5.22348 17.8892L6.03838 19.9363L8.80428 17.3048L5.44036 15.4199L4.73776 14.4449L2.61863 16.6324Z" fill="#383D91"/>
<path d="M18.1245 21.5C17.9028 21.5 17.6886 21.4157 17.5279 21.2606L16.4112 20.1818L17.3135 19.3101L17.9617 19.9363L18.7767 17.889C18.8624 17.6736 19.0395 17.5025 19.2626 17.4197L21.3814 16.6324L19.2626 14.8349L19.4006 13.3725L22.7522 16.2133C22.9553 16.4096 23.041 16.6888 22.9814 16.9603C22.9218 17.2319 22.7261 17.4535 22.4579 17.5532L19.899 18.5041L18.9147 20.9763C18.8116 21.2353 18.5822 21.4244 18.3012 21.4821C18.2424 21.4941 18.1831 21.5 18.1245 21.5Z" fill="#383D91"/>
<path d="M14.5907 18.955C14.0493 18.955 13.538 18.7141 13.0437 18.4811C12.6651 18.3027 12.2738 18.1182 12.0001 18.1182C11.7265 18.1182 11.3351 18.3027 10.9566 18.4811C10.4622 18.7141 9.95101 18.955 9.4096 18.955C9.23966 18.955 9.07547 18.9305 8.92152 18.8822C8.18478 18.6511 7.81146 17.9675 7.48202 17.3643C7.29236 17.0171 7.09629 16.658 6.89494 16.5164C6.68822 16.3711 6.26966 16.3003 5.86485 16.2319C5.17443 16.1151 4.3918 15.9829 3.94153 15.3852C3.49521 14.7927 3.60504 14.0367 3.70189 13.3696C3.75951 12.9729 3.81915 12.5628 3.73786 12.3212C3.66391 12.1011 3.37567 11.8149 3.09685 11.5381C2.60108 11.0458 2.039 10.4877 2.039 9.72753C2.039 8.96731 2.60108 8.4093 3.09685 7.91696C3.37563 7.6402 3.66391 7.35405 3.7379 7.13387C3.81907 6.89231 3.75947 6.48221 3.70185 6.08551C3.60495 5.41849 3.49513 4.66246 3.9414 4.06991C4.3918 3.47213 5.17443 3.33987 5.86485 3.22314C6.26966 3.15473 6.68813 3.08403 6.89494 2.93861C7.09629 2.7971 7.29236 2.43801 7.48194 2.09072C7.81134 1.48754 8.18469 0.803872 8.92143 0.57273C9.07539 0.524451 9.23953 0.5 9.40951 0.5C9.95092 0.5 10.4622 0.740856 10.9566 0.973866C11.3352 1.15224 11.7265 1.33673 12.0001 1.33673C12.2737 1.33673 12.6651 1.15224 13.0436 0.973866C13.538 0.740897 14.0492 0.5 14.5906 0.5C14.7606 0.5 14.9248 0.524451 15.0787 0.57273C15.8155 0.803872 16.1888 1.48754 16.5182 2.09072C16.7078 2.43797 16.9039 2.79701 17.1052 2.93861C17.3121 3.08403 17.7306 3.15473 18.1353 3.22314C18.8257 3.33987 19.6084 3.47213 20.0586 4.06983C20.5049 4.66234 20.3951 5.41836 20.2983 6.08543C20.2406 6.48212 20.181 6.89227 20.2623 7.13383C20.3362 7.35401 20.6246 7.64016 20.9033 7.917C21.3991 8.4093 21.9611 8.96731 21.9611 9.72753C21.9611 10.4877 21.399 11.0458 20.9033 11.5381C20.6245 11.8148 20.3362 12.101 20.2622 12.3212C20.181 12.5627 20.2406 12.9729 20.2983 13.3695C20.3952 14.0365 20.505 14.7926 20.0587 15.3851C19.6083 15.9828 18.8257 16.1151 18.1353 16.2319C17.7305 16.3003 17.312 16.371 17.1052 16.5164C16.9039 16.6579 16.7078 17.017 16.5183 17.3643C16.1889 17.9675 15.8155 18.6511 15.0788 18.8823C14.9249 18.9305 14.7607 18.955 14.5907 18.955ZM12.0001 16.8856C12.5682 16.8856 13.0943 17.1335 13.603 17.3732C13.9672 17.5448 14.3438 17.7223 14.5907 17.7223C14.6271 17.7223 14.6579 17.7182 14.6847 17.7098C14.9287 17.6333 15.1736 17.1848 15.3897 16.7891C15.6473 16.3174 15.9136 15.8296 16.3544 15.5196C16.8006 15.206 17.3674 15.1102 17.9155 15.0176C18.3678 14.9411 18.8804 14.8545 19.0272 14.6597C19.1698 14.4703 19.0981 13.9765 19.0348 13.5408C18.957 13.0058 18.8766 12.4525 19.0488 11.9404C19.2146 11.4471 19.6082 11.0563 19.9888 10.6783C20.3152 10.3542 20.6852 9.9869 20.6852 9.72749C20.6852 9.46808 20.3152 9.10077 19.9888 8.77669C19.6081 8.39871 19.2145 8.00787 19.0488 7.51454C18.8767 7.00252 18.957 6.4492 19.0348 5.91415C19.098 5.47851 19.1698 4.98472 19.0271 4.7953C18.8804 4.60052 18.3678 4.51393 17.9155 4.43751C17.3674 4.34485 16.8006 4.24908 16.3544 3.93541C15.9136 3.62544 15.6472 3.13771 15.3896 2.666C15.1736 2.27034 14.9286 1.82188 14.6846 1.74525C14.6579 1.73687 14.6271 1.73276 14.5906 1.73276C14.3438 1.73276 13.9672 1.91022 13.603 2.08188C13.0943 2.32157 12.5683 2.56948 12.0001 2.56948C11.4319 2.56948 10.9059 2.32165 10.3971 2.08188C10.0329 1.91026 9.65633 1.73276 9.40951 1.73276C9.37308 1.73276 9.34227 1.73682 9.31545 1.74525C9.07148 1.8218 8.82656 2.27034 8.61047 2.666C8.35291 3.13771 8.08655 3.62544 7.64578 3.93541C7.19963 4.24908 6.63283 4.34485 6.08468 4.43751C5.63239 4.51393 5.11977 4.60061 4.97304 4.79538C4.83038 4.98481 4.90214 5.47856 4.96539 5.91423C5.04316 6.44929 5.12356 7.00261 4.95142 7.51462C4.78561 8.00792 4.39197 8.39876 4.01135 8.77669C3.68496 9.10077 3.315 9.46808 3.315 9.72757C3.315 9.98707 3.68496 10.3544 4.01135 10.6785C4.39206 11.0564 4.78569 11.4473 4.95142 11.9405C5.12347 12.4526 5.04316 13.0059 4.96539 13.541C4.90218 13.9766 4.83038 14.4704 4.97312 14.6598C5.11977 14.8546 5.63243 14.9412 6.08468 15.0176C6.63283 15.1103 7.19963 15.2061 7.64569 15.5197C8.08659 15.8297 8.35296 16.3174 8.61051 16.7891C8.8266 17.1848 9.07152 17.6333 9.3155 17.7099C9.34231 17.7183 9.37303 17.7224 9.40956 17.7224C9.65633 17.7224 10.0329 17.5449 10.3971 17.3733C10.9059 17.1335 11.4318 16.8856 12.0001 16.8856Z" stroke="#383D91" stroke-width="0.6" mask="url(#path-1-outside-1_2372_32)"/>
<path d="M12.0001 15.2748C8.834 15.2748 6.25815 12.7863 6.25815 9.72749C6.25815 6.66868 8.83395 4.18017 12.0001 4.18017C13.2819 4.18017 14.4945 4.57932 15.5067 5.33456C16.9272 6.39429 17.7419 7.99547 17.7419 9.72745C17.7419 12.7863 15.1661 15.2748 12.0001 15.2748ZM12.0001 5.41297C9.53757 5.41297 7.53415 7.34849 7.53415 9.72754C7.53415 12.1066 9.53757 14.0421 12.0001 14.0421C14.4626 14.0421 16.466 12.1066 16.466 9.72754C16.466 8.38033 15.8321 7.13487 14.7268 6.31027C13.9401 5.72328 12.9971 5.41297 12.0001 5.41297Z" stroke="#383D91" stroke-width="0.6" mask="url(#path-1-outside-1_2372_32)"/>
<path d="M5.87497 21.4999C5.52189 21.4999 5.21192 21.2943 5.08533 20.9762L4.10109 18.504L1.54213 17.5532C1.27392 17.4535 1.07824 17.2319 1.0186 16.9604C0.95896 16.6888 1.04468 16.4094 1.24788 16.2132L4.43119 13.1775L4.90214 15.3224L9.81345 18.0848L6.47219 21.2606C6.31243 21.4149 6.10038 21.4999 5.87497 21.4999ZM2.61863 16.6324L4.73776 17.4199C4.96059 17.5026 5.1378 17.6737 5.22348 17.8892L6.03838 19.9363L8.80428 17.3048L5.44036 15.4199L4.73776 14.4449L2.61863 16.6324Z" stroke="#383D91" stroke-width="0.6" mask="url(#path-1-outside-1_2372_32)"/>
<path d="M18.1245 21.5C17.9028 21.5 17.6886 21.4157 17.5279 21.2606L16.4112 20.1818L17.3135 19.3101L17.9617 19.9363L18.7767 17.889C18.8624 17.6736 19.0395 17.5025 19.2626 17.4197L21.3814 16.6324L19.2626 14.8349L19.4006 13.3725L22.7522 16.2133C22.9553 16.4096 23.041 16.6888 22.9814 16.9603C22.9218 17.2319 22.7261 17.4535 22.4579 17.5532L19.899 18.5041L18.9147 20.9763C18.8116 21.2353 18.5822 21.4244 18.3012 21.4821C18.2424 21.4941 18.1831 21.5 18.1245 21.5Z" stroke="#383D91" stroke-width="0.6" mask="url(#path-1-outside-1_2372_32)"/>
</svg>
