<svg width="27" height="22" viewBox="0 0 27 22" fill="none" xmlns="http://www.w3.org/2000/svg">
<path d="M26.0375 8.6403C26.0375 7.93099 25.4625 7.35596 24.7531 7.35596H17.3974C16.6881 7.35596 16.113 7.93099 16.113 8.6403V12.4933C16.113 13.2026 16.6881 13.7777 17.3974 13.7777H24.7531C25.4625 13.7777 26.0375 13.2026 26.0375 12.4933V8.6403ZM19.7927 12.0808C18.9658 12.0808 18.2955 11.4105 18.2955 10.5836C18.2955 9.75674 18.9658 9.08643 19.7927 9.08643C20.6196 9.08643 21.2899 9.75674 21.2899 10.5836C21.2899 11.4104 20.6196 12.0808 19.7927 12.0808Z" fill="url(#paint0_linear_2142_20071)"/>
<path d="M14.4207 5.6044H23.9354V1.75137C23.9354 0.785666 23.1888 0 22.2229 0H1.79025C0.824547 0 0 0.785666 0 1.75137V19.4986C0 20.4643 0.824547 21.25 1.79025 21.25H22.2229C23.1887 21.25 23.9354 20.4643 23.9354 19.4986V15.5288H14.4381L14.4207 5.6044Z" fill="url(#paint1_linear_2142_20071)"/>
<defs>
<linearGradient id="paint0_linear_2142_20071" x1="21.0753" y1="7.35596" x2="21.0753" y2="13.7777" gradientUnits="userSpaceOnUse">
<stop stop-color="#F18D72"/>
<stop offset="1" stop-color="#C744A3"/>
</linearGradient>
<linearGradient id="paint1_linear_2142_20071" x1="11.9677" y1="0" x2="11.9677" y2="21.25" gradientUnits="userSpaceOnUse">
<stop stop-color="#F18D72"/>
<stop offset="1" stop-color="#C744A3"/>
</linearGradient>
</defs>
</svg>
