<svg width="57" height="39" viewBox="0 0 57 39" fill="none" xmlns="http://www.w3.org/2000/svg">
<path d="M54.7573 12.3807C54.766 12.5375 54.7545 12.6971 54.7151 12.8557L51.1992 26.9192C51.0219 27.6277 50.3869 28.1259 49.6569 28.1297L28.5616 28.2363C28.5588 28.2363 28.5563 28.2363 28.5535 28.2363H7.45794C6.72408 28.2363 6.08462 27.7364 5.90733 27.0243L2.39144 12.9074C2.35096 12.7446 2.33924 12.5806 2.34947 12.4197C0.98935 11.9912 0 10.7184 0 9.21853C0 7.36789 1.50544 5.86245 3.35607 5.86245C5.20671 5.86245 6.71215 7.36789 6.71215 9.21853C6.71215 10.2607 6.23463 11.1932 5.48692 11.8092L9.88881 16.2443C11.0013 17.3654 12.5451 18.008 14.1245 18.008C15.992 18.008 17.7725 17.1212 18.8937 15.6353L26.1279 6.04997C25.5202 5.44268 25.1439 4.60355 25.1439 3.67834C25.1439 1.8277 26.6494 0.322266 28.5 0.322266C30.3506 0.322266 31.8561 1.8277 31.8561 3.67834C31.8561 4.57585 31.4998 5.39047 30.9238 5.99329C30.9258 5.99584 30.9281 5.99797 30.93 6.00074L38.1118 15.6125C39.2326 17.1127 41.0195 18.0082 42.8923 18.0082C44.4862 18.0082 45.985 17.3875 47.112 16.2603L51.5416 11.8307C50.7782 11.2149 50.2879 10.2735 50.2879 9.21853C50.2879 7.36789 51.7933 5.86245 53.6439 5.86245C55.4946 5.86245 57 7.36789 57 9.21853C57 10.6784 56.0614 11.92 54.7573 12.3807ZM50.8561 33.2438C50.8561 32.3612 50.1406 31.6456 49.258 31.6456H7.9197C7.0371 31.6456 6.32157 32.3612 6.32157 33.2438V37.0793C6.32157 37.9619 7.0371 38.6774 7.9197 38.6774H49.258C50.1406 38.6774 50.8561 37.9619 50.8561 37.0793V33.2438Z" fill="url(#paint0_linear_2142_27184)"/>
<defs>
<linearGradient id="paint0_linear_2142_27184" x1="28.5" y1="0.322266" x2="28.5" y2="38.6774" gradientUnits="userSpaceOnUse">
<stop stop-color="#F18D72"/>
<stop offset="1" stop-color="#C744A3"/>
</linearGradient>
</defs>
</svg>
