<svg width="26" height="27" viewBox="0 0 26 27" fill="none" xmlns="http://www.w3.org/2000/svg">
<path d="M22.5113 26.6401H3.48867C2.56374 26.6391 1.67698 26.2712 1.02295 25.6172C0.368923 24.9632 0.00103494 24.0764 0 23.1515L0 4.12881C0.00104836 3.20388 0.36894 2.31713 1.02297 1.66311C1.67699 1.00908 2.56374 0.641186 3.48867 0.640139H22.5113C23.4363 0.641186 24.323 1.00908 24.977 1.66311C25.6311 2.31713 25.999 3.20388 26 4.12881V23.1515C25.999 24.0764 25.6311 24.9632 24.977 25.6172C24.323 26.2712 23.4363 26.6391 22.5113 26.6401ZM24.7812 4.12881C24.7806 3.527 24.5412 2.95004 24.1156 2.52449C23.6901 2.09895 23.1131 1.85957 22.5113 1.85889H3.48867C2.88686 1.85957 2.3099 2.09895 1.88435 2.52449C1.45881 2.95004 1.21944 3.527 1.21875 4.12881V23.1515C1.21942 23.7533 1.45879 24.3303 1.88434 24.7558C2.30988 25.1813 2.88686 25.4207 3.48867 25.4214H22.5113C23.1131 25.4207 23.6901 25.1813 24.1157 24.7558C24.5412 24.3303 24.7806 23.7533 24.7812 23.1515V4.12881ZM13.4309 20.7488C13.3166 20.863 13.1616 20.9272 13 20.9272C12.8384 20.9272 12.6834 20.863 12.5691 20.7488L6.54063 14.7203C6.32391 14.503 6.2022 14.2087 6.2022 13.9019C6.2022 13.5951 6.32391 13.3007 6.54063 13.0835L7.18418 12.44C7.40143 12.2233 7.69574 12.1016 8.00257 12.1016C8.30939 12.1016 8.6037 12.2233 8.82096 12.44L13.0003 16.6193L17.1796 12.44C17.3968 12.2233 17.6911 12.1016 17.9979 12.1016C18.3048 12.1016 18.5991 12.2233 18.8163 12.44L19.4594 13.0835C19.676 13.3008 19.7977 13.5951 19.7977 13.9019C19.7977 14.2087 19.676 14.503 19.4594 14.7203L13.4309 20.7488ZM17.9974 13.3448L13.4309 17.9114C13.3166 18.0257 13.1616 18.0899 13 18.0899C12.8384 18.0899 12.6834 18.0257 12.5691 17.9114L8.00252 13.3451L7.4458 13.9019L13 19.4561L18.5542 13.9019L17.9974 13.3448ZM13.4309 15C13.3166 15.1142 13.1616 15.1784 13 15.1784C12.8384 15.1784 12.6834 15.1142 12.5691 15L6.54063 8.97166C6.32393 8.75443 6.20224 8.46013 6.20224 8.1533C6.20224 7.84647 6.32393 7.55216 6.54063 7.33493L7.18423 6.69133C7.40146 6.47464 7.69576 6.35295 8.00259 6.35295C8.30942 6.35295 8.60373 6.47464 8.82096 6.69133L13.0003 10.8706L17.1796 6.69133C17.3968 6.47463 17.6911 6.35293 17.9979 6.35293C18.3047 6.35293 18.5991 6.47463 18.8163 6.69133L19.4594 7.33499C19.676 7.55223 19.7977 7.84652 19.7977 8.15332C19.7977 8.46013 19.676 8.75442 19.4594 8.97166L13.4309 15ZM17.9974 7.59605L13.4309 12.1627C13.3166 12.2769 13.1616 12.3411 13 12.3411C12.8384 12.3411 12.6834 12.2769 12.5691 12.1627L8.00252 7.59605L7.44575 8.15287L13 13.7075L18.5542 8.15327L17.9974 7.59605Z" fill="url(#paint0_linear_2142_20442)"/>
<defs>
<linearGradient id="paint0_linear_2142_20442" x1="13" y1="26.6401" x2="13" y2="0.640137" gradientUnits="userSpaceOnUse">
<stop stop-color="#F18D72"/>
<stop offset="1" stop-color="#C744A3"/>
</linearGradient>
</defs>
</svg>
