<svg width="21" height="22" viewBox="0 0 21 22" fill="none" xmlns="http://www.w3.org/2000/svg">
<path d="M1.55556 3.88889V2C1.55556 1.44772 2.00327 1 2.55555 1H19C19.5523 1 20 1.44772 20 2V3.88889M1.55556 3.88889H20M1.55556 3.88889L3.22222 9.66667M20 3.88889L18 9.66667M3.22222 9.66667H2C1.44772 9.66667 1 10.1144 1 10.6667V16.2222V19.3333C1 19.8856 1.44772 20.3333 2 20.3333H19C19.5523 20.3333 20 19.8856 20 19.3333V10.6667C20 10.1144 19.5523 9.66667 19 9.66667H18M3.22222 9.66667H8.33333M18 9.66667H8.33333M8.33333 9.66667V13.7778C8.33333 14.3301 8.78105 14.7778 9.33333 14.7778H11.8889C12.4412 14.7778 12.8889 14.3301 12.8889 13.7778V9.88889" stroke="#383D91" stroke-width="2" stroke-linecap="round"/>
<path d="M1.11096 15.8887C3.4699 17.184 4.21531 18.1363 4.88874 20.1109" stroke="#383D91" stroke-width="2" stroke-linecap="round"/>
<path d="M20 15.8887C17.6411 17.184 16.8956 18.1363 16.2222 20.1109" stroke="#383D91" stroke-width="2" stroke-linecap="round"/>
<circle cx="10.6663" cy="12.5553" r="0.666667" fill="#383D91"/>
</svg>
