<svg width="143" height="143" viewBox="0 0 143 143" fill="none" xmlns="http://www.w3.org/2000/svg">
<path d="M84.9536 104.79C82.2464 104.79 79.6902 103.54 77.2184 102.331C75.3254 101.405 73.3688 100.447 72.0007 100.447C70.6326 100.447 68.6756 101.405 66.783 102.331C64.3112 103.54 61.755 104.79 59.048 104.79C58.1983 104.79 57.3774 104.663 56.6076 104.413C52.9239 103.213 51.0573 99.6647 49.4101 96.534C48.4618 94.7316 47.4815 92.8678 46.4747 92.1328C45.4411 91.3784 43.3483 91.011 41.3243 90.656C37.8722 90.05 33.959 89.3636 31.7076 86.2612C29.4761 83.1858 30.0252 79.2617 30.5095 75.7993C30.7976 73.7403 31.0958 71.6114 30.6893 70.3574C30.3195 69.215 28.8784 67.7295 27.4842 66.293C25.0054 63.7377 22.195 60.8412 22.195 56.8953C22.195 52.9494 25.0054 50.053 27.4842 47.4976C28.8782 46.061 30.3195 44.5758 30.6895 43.4329C31.0953 42.1791 30.7973 40.0505 30.5092 37.9915C30.0248 34.5293 29.4756 30.6052 31.707 27.5295C33.959 24.4268 37.8722 23.7403 41.3243 23.1344C43.3483 22.7793 45.4407 22.4123 46.4747 21.6576C47.4815 20.923 48.4618 19.0592 49.4097 17.2566C51.0567 14.1258 52.9235 10.5772 56.6072 9.3775C57.3769 9.12691 58.1977 9 59.0476 9C61.7546 9 64.311 10.2502 66.7828 11.4596C68.6758 12.3855 70.6324 13.343 72.0005 13.343C73.3684 13.343 75.3256 12.3855 77.2182 11.4596C79.69 10.2504 82.2462 9 84.9532 9C85.8029 9 86.624 9.12691 87.3936 9.3775C91.0773 10.5772 92.9439 14.1258 94.5911 17.2566C95.5392 19.059 96.5197 20.9226 97.5261 21.6576C98.5603 22.4123 100.653 22.7793 102.677 23.1344C106.129 23.7403 110.042 24.4268 112.293 27.5291C114.525 30.6045 113.976 34.5287 113.491 37.991C113.203 40.0501 112.905 42.1789 113.311 43.4327C113.681 44.5756 115.123 46.0608 116.516 47.4978C118.996 50.053 121.806 52.9494 121.806 56.8953C121.806 60.8412 118.995 63.7375 116.516 66.2928C115.122 67.7293 113.681 69.2146 113.311 70.3574C112.905 71.6112 113.203 73.7403 113.491 75.7989C113.976 79.261 114.525 83.1852 112.294 86.2608C110.042 89.3633 106.129 90.05 102.677 90.656C100.652 91.0108 98.5599 91.378 97.5261 92.1328C96.5197 92.8673 95.539 94.7311 94.5913 96.5338C92.9443 99.6645 91.0775 103.213 87.3938 104.413C86.6245 104.663 85.8033 104.79 84.9536 104.79ZM72.0003 94.049C74.8412 94.049 77.4713 95.3357 80.015 96.5799C81.8362 97.4706 83.7191 98.392 84.9534 98.392C85.1356 98.392 85.2896 98.3708 85.4237 98.3271C86.6436 97.9298 87.8682 95.6021 88.9486 93.548C90.2364 91.1 91.5682 88.568 93.7721 86.9591C96.0028 85.331 98.8368 84.834 101.578 84.353C103.839 83.9563 106.402 83.5064 107.136 82.4955C107.849 81.5123 107.49 78.9495 107.174 76.6881C106.785 73.9109 106.383 71.0389 107.244 68.3813C108.073 65.8209 110.041 63.7923 111.944 61.8302C113.576 60.148 115.426 58.2415 115.426 56.8951C115.426 55.5486 113.576 53.6421 111.944 51.9599C110.041 49.9981 108.073 47.9694 107.244 45.4088C106.384 42.7512 106.785 39.8792 107.174 37.102C107.49 34.8409 107.849 32.2778 107.135 31.2947C106.402 30.2837 103.839 29.8342 101.578 29.4375C98.8368 28.9566 96.0028 28.4595 93.7721 26.8314C91.5678 25.2225 90.236 22.691 88.9482 20.2426C87.8678 18.1889 86.6432 15.8612 85.4231 15.4634C85.2894 15.4199 85.1356 15.3986 84.9532 15.3986C83.7189 15.3986 81.8363 16.3197 80.0152 17.2107C77.4715 18.4548 74.8414 19.7416 72.0005 19.7416C69.1596 19.7416 66.5295 18.4552 63.9855 17.2107C62.1647 16.3199 60.2816 15.3986 59.0476 15.3986C58.8654 15.3986 58.7113 15.4197 58.5773 15.4634C57.3574 15.8608 56.1328 18.1889 55.0523 20.2426C53.7646 22.691 52.4327 25.2225 50.2289 26.8314C47.9982 28.4595 45.1642 28.9566 42.4234 29.4375C40.162 29.8342 37.5989 30.2841 36.8652 31.2951C36.1519 32.2783 36.5107 34.8411 36.8269 37.1024C37.2158 39.8796 37.6178 42.7516 36.7571 45.4092C35.928 47.9697 33.9598 49.9983 32.0568 51.9599C30.4248 53.6421 28.575 55.5486 28.575 56.8955C28.575 58.2424 30.4248 60.1489 32.0568 61.831C33.9603 63.7929 35.9285 65.8215 36.7571 68.3818C37.6173 71.0396 37.2158 73.9114 36.8269 76.689C36.5109 78.9501 36.1519 81.5131 36.8656 82.4963C37.5989 83.5073 40.1622 83.9568 42.4234 84.3535C45.1642 84.8344 47.9982 85.3315 50.2285 86.9596C52.433 88.5685 53.7648 91.1 55.0526 93.5484C56.133 95.6021 57.3576 97.93 58.5775 98.3275C58.7115 98.3711 58.8652 98.3924 59.0478 98.3924C60.2816 98.3924 62.1647 97.4713 63.9855 96.5803C66.5293 95.3357 69.1592 94.049 72.0003 94.049Z" fill="white"/>
<path d="M72.0003 85.6883C56.17 85.6883 43.2907 72.7718 43.2907 56.8951C43.2907 41.0184 56.1698 28.1019 72.0003 28.1019C78.4095 28.1019 84.4724 30.1736 89.5335 34.0936C96.6362 39.5942 100.71 47.905 100.71 56.8949C100.71 72.7718 87.8306 85.6883 72.0003 85.6883ZM72.0003 34.5007C59.6878 34.5007 49.6707 44.5469 49.6707 56.8953C49.6707 69.2437 59.6878 79.2899 72.0003 79.2899C84.3128 79.2899 94.3299 69.2437 94.3299 56.8953C94.3299 49.9027 91.1603 43.4381 85.6341 39.158C81.7003 36.1113 76.9855 34.5007 72.0003 34.5007Z" fill="white"/>
<path d="M41.3748 117.999C39.6095 117.999 38.0596 116.932 37.4267 115.281L32.5055 102.449L19.7107 97.5142C18.3696 96.9969 17.3912 95.8467 17.093 94.4371C16.7948 93.0275 17.2234 91.5776 18.2394 90.5591L34.156 74.8021L36.5107 85.9353L61.0673 100.274L44.361 116.757C43.5622 117.558 42.5019 117.999 41.3748 117.999ZM25.0931 92.7351L35.6888 96.8221C36.803 97.2516 37.689 98.1395 38.1174 99.258L42.1919 109.884L56.0214 96.2252L39.2018 86.4414L35.6888 81.3808L25.0931 92.7351Z" fill="white"/>
<path d="M102.622 118C101.514 118 100.443 117.563 99.6394 116.757L94.056 111.158L98.5675 106.633L101.808 109.884L105.884 99.2571C106.312 98.1393 107.198 97.2511 108.313 96.8215L118.907 92.7349L108.313 83.405L109.003 75.8142L125.761 90.5595C126.776 91.5782 127.205 93.0277 126.907 94.4369C126.609 95.8465 125.631 96.9969 124.289 97.5142L111.495 102.45L106.574 115.282C106.058 116.626 104.911 117.608 103.506 117.907C103.212 117.969 102.916 118 102.622 118Z" fill="white"/>
</svg>
