<svg width="26" height="27" viewBox="0 0 26 27" fill="none" xmlns="http://www.w3.org/2000/svg">
<path d="M22.5113 0.640137H3.48867C2.56374 0.641172 1.67698 1.00906 1.02295 1.66309C0.368923 2.31712 0.00103494 3.20387 0 4.12881L0 23.1515C0.00104836 24.0764 0.36894 24.9631 1.02297 25.6172C1.67699 26.2712 2.56374 26.6391 3.48867 26.6401H22.5113C23.4363 26.6391 24.323 26.2712 24.977 25.6172C25.6311 24.9631 25.999 24.0764 26 23.1515V4.12881C25.999 3.20387 25.6311 2.31712 24.977 1.66309C24.323 1.00906 23.4363 0.641172 22.5113 0.640137ZM24.7812 23.1515C24.7806 23.7533 24.5412 24.3302 24.1156 24.7558C23.6901 25.1813 23.1131 25.4207 22.5113 25.4214H3.48867C2.88686 25.4207 2.3099 25.1813 1.88435 24.7558C1.45881 24.3302 1.21944 23.7533 1.21875 23.1515V4.12881C1.21942 3.52699 1.45879 2.95002 1.88434 2.52447C2.30988 2.09893 2.88686 1.85956 3.48867 1.85889H22.5113C23.1131 1.85956 23.6901 2.09893 24.1157 2.52447C24.5412 2.95002 24.7806 3.52699 24.7812 4.12881V23.1515ZM13.4309 6.53152C13.3166 6.41725 13.1616 6.35306 13 6.35306C12.8384 6.35306 12.6834 6.41725 12.5691 6.53152L6.54063 12.56C6.32391 12.7772 6.2022 13.0715 6.2022 13.3784C6.2022 13.6852 6.32391 13.9795 6.54063 14.1967L7.18418 14.8403C7.40143 15.057 7.69574 15.1786 8.00257 15.1786C8.30939 15.1786 8.6037 15.057 8.82096 14.8403L13.0003 10.661L17.1796 14.8403C17.3968 15.057 17.6911 15.1786 17.9979 15.1786C18.3048 15.1786 18.5991 15.057 18.8163 14.8403L19.4594 14.1967C19.676 13.9795 19.7977 13.6852 19.7977 13.3784C19.7977 13.0716 19.676 12.7773 19.4594 12.56L13.4309 6.53152ZM17.9974 13.9354L13.4309 9.36882C13.3166 9.25455 13.1616 9.19036 13 9.19036C12.8384 9.19036 12.6834 9.25455 12.5691 9.36882L8.00252 13.9352L7.4458 13.3784L13 7.82421L18.5542 13.3784L17.9974 13.9354ZM13.4309 12.2803C13.3166 12.166 13.1616 12.1018 13 12.1018C12.8384 12.1018 12.6834 12.166 12.5691 12.2803L6.54063 18.3086C6.32393 18.5258 6.20224 18.8201 6.20224 19.127C6.20224 19.4338 6.32393 19.7281 6.54063 19.9453L7.18423 20.5889C7.40146 20.8056 7.69576 20.9273 8.00259 20.9273C8.30942 20.9273 8.60373 20.8056 8.82096 20.5889L13.0003 16.4096L17.1796 20.5889C17.3968 20.8056 17.6911 20.9273 17.9979 20.9273C18.3047 20.9273 18.5991 20.8056 18.8163 20.5889L19.4594 19.9453C19.676 19.728 19.7977 19.4338 19.7977 19.1269C19.7977 18.8201 19.676 18.5259 19.4594 18.3086L13.4309 12.2803ZM17.9974 19.6842L13.4309 15.1176C13.3166 15.0033 13.1616 14.9391 13 14.9391C12.8384 14.9391 12.6834 15.0033 12.5691 15.1176L8.00252 19.6842L7.44575 19.1274L13 13.5728L18.5542 19.127L17.9974 19.6842Z" fill="url(#paint0_linear_2142_20451)"/>
<defs>
<linearGradient id="paint0_linear_2142_20451" x1="13" y1="0.640137" x2="13" y2="26.6401" gradientUnits="userSpaceOnUse">
<stop stop-color="#9DE476"/>
<stop offset="1" stop-color="#3F7D2F"/>
</linearGradient>
</defs>
</svg>
