<svg width="56" height="56" viewBox="0 0 56 56" fill="none" xmlns="http://www.w3.org/2000/svg">
<path d="M28.001 35.2542C30.0163 35.2542 31.6504 33.6425 31.6504 31.6548V15.2438C31.6504 13.2557 30.0163 11.6444 28.001 11.6444C25.9856 11.6444 24.3516 13.2557 24.3516 15.2438V31.6551C24.3516 33.6428 25.9856 35.2542 28.001 35.2542Z" fill="url(#paint0_linear_2142_20906)"/>
<path d="M28.0008 37.2134C27.0403 37.2134 26.097 37.5964 25.4197 38.2673C24.7397 38.9353 24.3514 39.8626 24.3514 40.8099C24.3514 41.7573 24.7397 42.6874 25.4197 43.3554C26.097 44.0264 27.0403 44.4093 28.0008 44.4093C28.9614 44.4093 29.9015 44.0264 30.5817 43.3554C31.2587 42.6874 31.6503 41.7573 31.6503 40.8099C31.6503 39.8626 31.2587 38.9353 30.5817 38.2673C29.9015 37.5964 28.9614 37.2134 28.0008 37.2134Z" fill="url(#paint1_linear_2142_20906)"/>
<path d="M28 0.410957C12.561 0.410957 0 12.7996 0 28.0274C0 43.2552 12.5607 55.6438 28 55.6438C43.4393 55.6438 55.9997 43.2552 55.9997 28.0274C55.9997 12.7996 43.4393 0.410957 28 0.410957ZM28 51.3245C14.9754 51.3245 4.37929 40.8736 4.37929 28.0274C4.37929 15.1812 14.9754 4.73026 28 4.73026C41.0243 4.73026 51.6204 15.1812 51.6204 28.0274C51.6204 40.8736 41.0246 51.3245 28 51.3245Z" fill="url(#paint2_linear_2142_20906)"/>
<defs>
<linearGradient id="paint0_linear_2142_20906" x1="28.001" y1="11.6444" x2="28.001" y2="35.2542" gradientUnits="userSpaceOnUse">
<stop stop-color="#EE8974"/>
<stop offset="1" stop-color="#CA4A9F"/>
</linearGradient>
<linearGradient id="paint1_linear_2142_20906" x1="28.0008" y1="37.2134" x2="28.0008" y2="44.4093" gradientUnits="userSpaceOnUse">
<stop stop-color="#EE8974"/>
<stop offset="1" stop-color="#CA4A9F"/>
</linearGradient>
<linearGradient id="paint2_linear_2142_20906" x1="27.9999" y1="0.410957" x2="27.9999" y2="55.6438" gradientUnits="userSpaceOnUse">
<stop stop-color="#EE8974"/>
<stop offset="1" stop-color="#CA4A9F"/>
</linearGradient>
</defs>
</svg>
