<svg width="17" height="17" viewBox="0 0 17 17" fill="none" xmlns="http://www.w3.org/2000/svg">
<path d="M8.5227 17L11.1804 8.41554L9.0578 11.2429L6.8282 11.2615L8.5227 17Z" fill="white"/>
<path d="M17 10.5978L9.99246 5.30916L11.9151 8.28806L11.243 10.5052L17 10.5978Z" fill="white"/>
<path d="M13.8168 0L6.8282 5.31588L10.139 4.32955L11.9533 5.6812L13.8168 0Z" fill="white"/>
<path d="M3.41323 0.209441L6.10157 8.78351L6.22519 5.195L8.01849 3.81327L3.41323 0.209441Z" fill="white"/>
<path d="M0 10.118L8.64538 10.4161L5.45414 9.0676L4.82243 6.83766L0 10.118Z" fill="white"/>
<path d="M8.5227 17L11.1804 8.41554L9.0578 11.2429L6.8282 11.2615L8.5227 17Z" stroke="white"/>
<path d="M17 10.5978L9.99246 5.30916L11.9151 8.28806L11.243 10.5052L17 10.5978Z" stroke="white"/>
<path d="M13.8168 0L6.8282 5.31588L10.139 4.32955L11.9533 5.6812L13.8168 0Z" stroke="white"/>
<path d="M3.41323 0.209441L6.10157 8.78351L6.22519 5.195L8.01849 3.81327L3.41323 0.209441Z" stroke="white"/>
<path d="M0 10.118L8.64538 10.4161L5.45414 9.0676L4.82243 6.83766L0 10.118Z" stroke="white"/>
</svg>
