<svg width="24" height="24" viewBox="0 0 24 24" fill="none" xmlns="http://www.w3.org/2000/svg">
<path d="M11.73 13.685V9.41357H22.7207C22.885 10.1364 23.0164 10.81 23.0164 11.7793C23.0164 18.3507 18.515 23.0164 11.7464 23.0164C4.97786 23.0164 0 17.8414 0 11.5C0 5.15857 5.25714 0 11.73 0C14.9007 0 17.5457 1.13357 19.5829 3.00643L16.2479 6.17714C15.41 5.38857 13.9314 4.46857 11.73 4.46857C7.85286 4.46857 4.68214 7.63929 4.68214 11.5C4.68214 15.3607 7.85286 18.5314 11.73 18.5314C16.2314 18.5314 17.8743 15.4757 18.1864 13.685H11.7136H11.73Z" fill="white"/>
</svg>
