<svg width="30" height="26" viewBox="0 0 30 26" fill="none" xmlns="http://www.w3.org/2000/svg">
<path d="M20.6025 6.42863C20.6028 5.69771 20.9001 4.99682 21.429 4.48015C21.958 3.96349 22.6752 3.67336 23.423 3.67361C24.1708 3.67385 24.8879 3.96444 25.4165 4.48145C25.945 4.99847 26.2419 5.69955 26.2416 6.43047C26.2414 7.16139 25.9441 7.86228 25.4151 8.37894C24.8862 8.89561 24.1689 9.18573 23.4211 9.18549C22.6733 9.18525 21.9563 8.89466 21.4277 8.37765C20.8991 7.86063 20.6023 7.15955 20.6025 6.42863ZM28.0718 1.88284C27.2087 1.03922 26.1225 0.447012 24.9347 0.172491C23.7468 -0.10203 22.5042 -0.0480297 21.346 0.328448C20.1878 0.704925 19.1596 1.38902 18.3765 2.30419C17.5934 3.21935 17.0864 4.32946 16.912 5.51029L10.9028 14.4127C10.0948 14.4531 9.29429 14.6551 8.55581 15.0151L3.92015 11.474C3.40291 11.1056 2.75946 10.9481 2.12564 11.0347C1.49182 11.1213 0.917227 11.4453 0.523168 11.9382C0.12911 12.4311 -0.0535806 13.0544 0.0136646 13.6764C0.0809098 14.2985 0.392828 14.8707 0.883572 15.2723L5.46098 18.7711C5.24262 19.6096 5.21898 20.4852 5.3918 21.3337C5.56463 22.1822 5.92953 22.9822 6.45976 23.675C6.99 24.3678 7.67212 24.9358 8.45613 25.3374C9.24015 25.739 10.1062 25.9641 10.9907 25.996C11.8753 26.028 12.7559 25.8661 13.5681 25.5221C14.3803 25.1782 15.1035 24.6609 15.6846 24.0083C16.2657 23.3557 16.6901 22.5842 16.9265 21.7505C17.163 20.9167 17.2055 20.0418 17.0511 19.1899L24.3625 12.7909C25.5706 12.6205 26.7064 12.1249 27.6426 11.3594C28.5789 10.594 29.2788 9.58903 29.664 8.45693C30.0491 7.32483 30.1044 6.11029 29.8235 4.94925C29.5427 3.7882 28.9349 2.72646 28.0718 1.88284ZM11.2072 24.07C10.1581 24.07 9.15205 23.6626 8.41026 22.9376C7.66847 22.2125 7.25174 21.2291 7.25174 20.2038L7.25362 20.1431L9.21912 21.6437C9.47428 21.8386 9.7662 21.9825 10.0782 22.0671C10.3903 22.1517 10.7163 22.1754 11.0377 22.1368C11.3591 22.0983 11.6696 21.9983 11.9514 21.8424C12.2333 21.6866 12.481 21.478 12.6804 21.2286C12.8798 20.9792 13.0269 20.6939 13.1135 20.3889C13.2001 20.0839 13.2243 19.7652 13.1849 19.4511C13.1454 19.1369 13.0431 18.8334 12.8837 18.5579C12.7242 18.2824 12.5109 18.0403 12.2557 17.8454L10.3917 16.4202C10.9337 16.3088 11.4936 16.31 12.0351 16.4236C12.5766 16.5372 13.0877 16.7606 13.5352 17.0795C13.9828 17.3984 14.3568 17.8056 14.6331 18.2748C14.9095 18.744 15.0819 19.2646 15.1393 19.8031C15.1967 20.3415 15.1378 20.8857 14.9663 21.4005C14.7949 21.9152 14.5148 22.3891 14.1441 22.7913C13.7734 23.1935 13.3205 23.5152 12.8146 23.7355C12.3086 23.9557 11.761 24.0697 11.2072 24.07ZM23.4211 11.0203C22.1752 11.0203 20.9804 10.5366 20.0994 9.67546C19.2184 8.81435 18.7235 7.64643 18.7235 6.42863C18.7235 5.21083 19.2184 4.04292 20.0994 3.1818C20.9804 2.32069 22.1752 1.83693 23.4211 1.83693C24.667 1.83693 25.8619 2.32069 26.7429 3.1818C27.6239 4.04292 28.1188 5.21083 28.1188 6.42863C28.1188 7.64643 27.6239 8.81435 26.7429 9.67546C25.8619 10.5366 24.667 11.0203 23.4211 11.0203Z" fill="white"/>
</svg>
