<svg width="56" height="56" viewBox="0 0 56 56" fill="none" xmlns="http://www.w3.org/2000/svg">
    <path d="M28.001 35.2541C30.0163 35.2541 31.6504 33.6425 31.6504 31.6547V15.2437C31.6504 13.2557 30.0163 11.6443 28.001 11.6443C25.9856 11.6443 24.3516 13.2557 24.3516 15.2437V31.655C24.3516 33.6428 25.9856 35.2541 28.001 35.2541Z" fill="url(#paint0_linear_33_1673)"/>
    <path d="M28.001 37.2134C27.0404 37.2134 26.0971 37.5964 25.4198 38.2673C24.7399 38.9353 24.3516 39.8625 24.3516 40.8099C24.3516 41.7573 24.7399 42.6874 25.4198 43.3554C26.0971 44.0263 27.0404 44.4093 28.001 44.4093C28.9615 44.4093 29.9016 44.0263 30.5818 43.3554C31.2589 42.6874 31.6504 41.7573 31.6504 40.8099C31.6504 39.8625 31.2589 38.9353 30.5818 38.2673C29.9016 37.5964 28.9615 37.2134 28.001 37.2134Z" fill="url(#paint1_linear_33_1673)"/>
    <path d="M28 0.410889C12.561 0.410889 0 12.7995 0 28.0273C0 43.2552 12.5607 55.6438 28 55.6438C43.4393 55.6438 55.9997 43.2552 55.9997 28.0273C55.9997 12.7995 43.4393 0.410889 28 0.410889ZM28 51.3245C14.9754 51.3245 4.37929 40.8735 4.37929 28.0273C4.37929 15.1812 14.9754 4.73019 28 4.73019C41.0243 4.73019 51.6204 15.1812 51.6204 28.0273C51.6204 40.8735 41.0246 51.3245 28 51.3245Z" fill="url(#paint2_linear_33_1673)"/>
    <defs>
        <linearGradient id="paint0_linear_33_1673" x1="28.001" y1="11.6443" x2="28.001" y2="35.2541" gradientUnits="userSpaceOnUse">
            <stop stop-color="#EE8974"/>
            <stop offset="1" stop-color="#CA4A9F"/>
        </linearGradient>
        <linearGradient id="paint1_linear_33_1673" x1="28.001" y1="37.2134" x2="28.001" y2="44.4093" gradientUnits="userSpaceOnUse">
            <stop stop-color="#EE8974"/>
            <stop offset="1" stop-color="#CA4A9F"/>
        </linearGradient>
        <linearGradient id="paint2_linear_33_1673" x1="27.9999" y1="0.410889" x2="27.9999" y2="55.6438" gradientUnits="userSpaceOnUse">
            <stop stop-color="#EE8974"/>
            <stop offset="1" stop-color="#CA4A9F"/>
        </linearGradient>
    </defs>
</svg>
