<svg width="25" height="25" viewBox="0 0 25 25" fill="none" xmlns="http://www.w3.org/2000/svg">
    <path d="M24.0298 4.8293L20.3842 4.8293C20.6602 4.3565 20.8298 3.8149 20.8298 3.2293C20.8298 0.445297 18.825 0.0292969 17.6298 0.0292969C16.1978 0.0292969 14.0002 1.9565 12.8298 3.7005C11.6594 1.9565 9.4618 0.0292969 8.0298 0.0292969C6.8346 0.0292969 4.8298 0.445297 4.8298 3.2293C4.8298 3.8149 4.9994 4.3565 5.2754 4.8293L1.6298 4.8293C1.1882 4.8293 0.829803 5.1877 0.829803 5.6293L0.829803 10.4293C0.829803 10.8709 1.1882 11.2293 1.6298 11.2293L2.4298 11.2293L2.4298 23.2293C2.4298 23.6709 2.7882 24.0293 3.2298 24.0293L22.4298 24.0293C22.8722 24.0293 23.2298 23.6709 23.2298 23.2293L23.2298 11.2293L24.0298 11.2293C24.4722 11.2293 24.8298 10.8709 24.8298 10.4293L24.8298 5.6293C24.8298 5.1877 24.4722 4.8293 24.0298 4.8293ZM17.6298 1.6293C18.9754 1.6293 19.2298 2.1917 19.2298 3.2293C19.2298 4.1117 18.5122 4.8293 17.6298 4.8293L13.9626 4.8293C14.7546 3.5733 16.7474 1.6293 17.6298 1.6293ZM14.4298 9.6293L11.2298 9.6293L11.2298 6.4293L12.8298 6.4293L14.4298 6.4293L14.4298 9.6293ZM6.4298 3.2293C6.4298 2.1917 6.685 1.6293 8.0298 1.6293C8.9122 1.6293 10.905 3.5733 11.6962 4.8293L8.0298 4.8293C7.1474 4.8293 6.4298 4.1117 6.4298 3.2293ZM2.4298 6.4293L9.6298 6.4293L9.6298 9.6293L2.4298 9.6293L2.4298 6.4293ZM4.0298 11.2293L9.6298 11.2293L9.6298 22.4293L4.0298 22.4293L4.0298 11.2293ZM11.2298 22.4293L11.2298 11.2293L14.4298 11.2293L14.4298 22.4293L11.2298 22.4293ZM21.6298 22.4293L16.0298 22.4293L16.0298 11.2293L21.6298 11.2293L21.6298 22.4293ZM23.2298 9.6293L16.0298 9.6293L16.0298 6.4293L23.2298 6.4293L23.2298 9.6293Z" fill="url(#paint0_linear_285_17463)"/>
    <defs>
        <linearGradient id="paint0_linear_285_17463" x1="12.8298" y1="0.0292969" x2="12.8298" y2="24.0293" gradientUnits="userSpaceOnUse">
            <stop stop-color="#3856F3"/>
            <stop offset="1" stop-color="#5144C9"/>
        </linearGradient>
    </defs>
</svg>
