<svg width="27" height="27" viewBox="0 0 27 27" fill="none" xmlns="http://www.w3.org/2000/svg">
    <path d="M1.96637 4.82939V3.20425C1.96637 2.04445 2.90658 1.10425 4.06637 1.10425H23.65C24.8098 1.10425 25.75 2.04445 25.75 3.20425V4.82939M1.96637 4.82939H25.75M1.96637 4.82939L4.1155 12.2797M25.75 4.82939L23.1711 12.2797M4.1155 12.2797H3.35C2.1902 12.2797 1.25 13.2199 1.25 14.3797V20.7329V23.9341C1.25 25.0939 2.1902 26.0341 3.35 26.0341H23.65C24.8098 26.0341 25.75 25.0939 25.75 23.9341V14.3797C25.75 13.2199 24.8098 12.2797 23.65 12.2797H23.1711M4.1155 12.2797H10.7061M23.1711 12.2797H10.7061M10.7061 12.2797V16.7703C10.7061 17.9301 11.6463 18.8703 12.8061 18.8703H14.4804C15.6402 18.8703 16.5804 17.9301 16.5804 16.7703V12.5662" stroke="url(#paint0_linear_285_17439)" stroke-width="1.75" stroke-linecap="round"/>
    <path d="M1.39453 20.303C4.43633 21.9733 5.39751 23.2012 6.26588 25.7474" stroke="url(#paint1_linear_285_17439)" stroke-width="1.75" stroke-linecap="round"/>
    <path d="M25.75 20.3032C22.7082 21.9735 21.747 23.2014 20.8787 25.7477" stroke="url(#paint2_linear_285_17439)" stroke-width="1.75" stroke-linecap="round"/>
    <circle cx="13.7132" cy="16.0044" r="0.859649" fill="url(#paint3_linear_285_17439)"/>
    <defs>
        <linearGradient id="paint0_linear_285_17439" x1="13.5" y1="1.10425" x2="13.5" y2="26.0341" gradientUnits="userSpaceOnUse">
            <stop stop-color="#3856F3"/>
            <stop offset="1" stop-color="#5144C9"/>
        </linearGradient>
        <linearGradient id="paint1_linear_285_17439" x1="3.8302" y1="20.303" x2="3.8302" y2="25.7474" gradientUnits="userSpaceOnUse">
            <stop stop-color="#3856F3"/>
            <stop offset="1" stop-color="#5144C9"/>
        </linearGradient>
        <linearGradient id="paint2_linear_285_17439" x1="23.3143" y1="20.3032" x2="23.3143" y2="25.7477" gradientUnits="userSpaceOnUse">
            <stop stop-color="#3856F3"/>
            <stop offset="1" stop-color="#5144C9"/>
        </linearGradient>
        <linearGradient id="paint3_linear_285_17439" x1="13.7132" y1="15.1448" x2="13.7132" y2="16.8641" gradientUnits="userSpaceOnUse">
            <stop stop-color="#3856F3"/>
            <stop offset="1" stop-color="#5144C9"/>
        </linearGradient>
    </defs>
</svg>
