<svg width="24" height="28" viewBox="0 0 24 28" fill="none" xmlns="http://www.w3.org/2000/svg">
    <path d="M14.9382 3.55926L16.6324 0.0341797L8.0272 0.0341797L9.72132 3.55926C4.57924 4.7963 0.829781 9.55347 0.829781 15.1162C0.829781 21.6619 5.97805 27.0342 12.3298 27.0342C18.6734 27.0342 23.8298 21.6697 23.8298 15.1162C23.8298 9.55073 20.0778 4.79567 14.9382 3.55926ZM14.1605 1.61621L12.3298 5.42548L10.499 1.61621L14.1605 1.61621ZM10.1616 15.9072C10.1888 15.9863 10.2197 16.0637 10.2546 16.1387L6.94119 19.5573C6.14656 18.533 5.62017 17.2783 5.47261 15.9072L10.1616 15.9072ZM5.47261 14.3252C5.62017 12.9541 6.14656 11.6994 6.94119 10.6751L10.2546 14.0937C10.2197 14.1687 10.1888 14.2461 10.1616 14.3252L5.47261 14.3252ZM11.3388 17.2574C11.4115 17.2934 11.4864 17.3251 11.5631 17.3532L11.5631 22.1912C10.2342 22.0389 9.01819 21.4958 8.02541 20.6759L11.3388 17.2574ZM11.3388 12.975L8.02541 9.55648C9.01819 8.73662 10.2342 8.19356 11.5631 8.04126L11.5631 12.8792C11.4864 12.9073 11.4115 12.9391 11.3388 12.975ZM12.3298 14.3252C12.7525 14.3252 13.0964 14.68 13.0964 15.1162C13.0964 15.5524 12.7525 15.9072 12.3298 15.9072C11.907 15.9072 11.5631 15.5524 11.5631 15.1162C11.5631 14.68 11.907 14.3252 12.3298 14.3252ZM13.0964 17.3532C13.1731 17.3251 13.2481 17.2934 13.3208 17.2574L16.6342 20.6759C15.6414 21.4958 14.4253 22.0389 13.0964 22.1912L13.0964 17.3532ZM14.405 16.1387C14.4399 16.0637 14.4707 15.9758 14.4979 15.8967L19.1869 15.8967C19.0394 17.2677 18.513 18.533 17.7184 19.5573L14.405 16.1387ZM14.4979 14.3252C14.4707 14.2461 14.4399 14.1687 14.405 14.0937L17.7184 10.6751C18.513 11.6994 19.0394 12.9541 19.1869 14.3252L14.4979 14.3252ZM13.3208 12.975C13.248 12.9391 13.1731 12.9073 13.0964 12.8792L13.0964 8.04126C14.4253 8.19356 15.6414 8.73662 16.6342 9.55648L13.3208 12.975ZM12.3298 25.4521C6.83416 25.4521 2.36311 20.8155 2.36311 15.1162C2.36311 10.1959 5.79277 5.95124 10.4244 5.02206L11.136 6.50263C7.04919 7.1028 3.89645 10.7365 3.89645 15.1162C3.89645 19.914 7.67964 23.8174 12.3298 23.8174C16.9799 23.8174 20.7631 19.914 20.7631 15.1162C20.7631 10.7365 17.6104 7.1028 13.5236 6.50263L14.2352 5.02206C18.8668 5.95124 22.2964 10.1959 22.2964 15.1162C22.2964 20.8155 17.8254 25.4521 12.3298 25.4521Z" fill="url(#paint0_linear_285_17459)"/>
    <defs>
        <linearGradient id="paint0_linear_285_17459" x1="12.3298" y1="0.0341797" x2="12.3298" y2="27.0342" gradientUnits="userSpaceOnUse">
            <stop stop-color="#3856F3"/>
            <stop offset="1" stop-color="#5144C9"/>
        </linearGradient>
    </defs>
</svg>
