<svg width="43" height="43" viewBox="0 0 43 43" fill="none" xmlns="http://www.w3.org/2000/svg">
<g opacity="0.8">
<mask id="path-1-inside-1_4002_11864" fill="white">
<path d="M0 10C0 4.47715 4.47715 0 10 0H33C38.5228 0 43 4.47715 43 10V33C43 38.5228 38.5228 43 33 43H10C4.47715 43 0 38.5228 0 33V10Z"/>
</mask>
<path d="M0 10C0 4.47715 4.47715 0 10 0H33C38.5228 0 43 4.47715 43 10V33C43 38.5228 38.5228 43 33 43H10C4.47715 43 0 38.5228 0 33V10Z" fill="url(#paint0_linear_4002_11864)"/>
<path d="M0 10C0 3.92487 4.92487 -1 11 -1H32C38.0751 -1 43 3.92487 43 10C43 5.02944 38.5228 1 33 1H10C4.47715 1 0 5.02944 0 10ZM43 43H0H43ZM0 43V0V43ZM43 0V43V0Z" fill="#71D9FF" mask="url(#path-1-inside-1_4002_11864)"/>
</g>
<path d="M32.9998 13.2681L29.362 31.6089C29.362 31.6089 28.8535 32.8806 27.4542 32.2701L19.0219 25.8162C20.1553 24.7973 28.9478 16.8924 29.3324 16.534C29.9267 15.9792 29.5579 15.649 28.867 16.0686L15.8796 24.3162L10.869 22.6294C10.869 22.6294 10.0802 22.3496 10.0043 21.7391C9.92793 21.1286 10.8946 20.798 10.8946 20.798L31.3211 12.7848C31.3211 12.7848 32.9998 12.0472 32.9998 13.2681Z" fill="white"/>
<defs>
<linearGradient id="paint0_linear_4002_11864" x1="21.5" y1="0" x2="21.5" y2="43" gradientUnits="userSpaceOnUse">
<stop stop-color="#3FB6D1"/>
<stop offset="1" stop-color="#1E78CD"/>
</linearGradient>
</defs>
</svg>
