<svg width="43" height="43" viewBox="0 0 43 43" fill="none" xmlns="http://www.w3.org/2000/svg">
<g opacity="0.8">
<mask id="path-1-inside-1_4002_11866" fill="white">
<path d="M0 10C0 4.47715 4.47715 0 10 0H33C38.5228 0 43 4.47715 43 10V33C43 38.5228 38.5228 43 33 43H10C4.47715 43 0 38.5228 0 33V10Z"/>
</mask>
<path d="M0 10C0 4.47715 4.47715 0 10 0H33C38.5228 0 43 4.47715 43 10V33C43 38.5228 38.5228 43 33 43H10C4.47715 43 0 38.5228 0 33V10Z" fill="url(#paint0_linear_4002_11866)"/>
<path d="M0 10C0 3.92487 4.92487 -1 11 -1H32C38.0751 -1 43 3.92487 43 10C43 5.02944 38.5228 1 33 1H10C4.47715 1 0 5.02944 0 10ZM43 43H0H43ZM0 43V0V43ZM43 0V43V0Z" fill="#CA98FF" mask="url(#path-1-inside-1_4002_11866)"/>
</g>
<g filter="url(#filter0_d_4002_11866)">
<path d="M14.7283 26.6107C20.3826 28.7138 25.1945 29.1234 30.6474 25.85C30.6074 25.9071 29.5288 27.43 26.6923 28.2105C27.2915 28.9911 28.1105 29.8858 28.1105 29.8858C29.9283 29.8858 31.7061 29.3908 33.2441 28.439C34.4426 27.6775 35.1217 26.3639 34.9819 24.9933C34.7422 22.6517 34.1629 20.3673 33.2641 18.1781C32.1255 15.3226 29.3889 13.3427 26.2129 13.0571C25.9332 13.0381 25.7335 13.0381 25.6136 13.0381L25.2941 13.3427C28.9495 14.3326 30.7673 15.8746 30.8072 15.9317C25.1941 13.2284 18.5625 13.1904 12.9095 15.8175C12.9095 15.8175 14.7072 14.1232 18.6822 13.2284L18.4425 13C18.0231 13 17.6235 13.0381 17.2041 13.0952C14.2678 13.5711 11.8109 15.4938 10.7521 18.14C9.83328 20.4244 9.23404 22.823 9.01433 25.2598C8.89449 26.5543 9.53369 27.8298 10.6523 28.5722C12.1304 29.505 13.8882 30 15.666 30C15.666 30 16.3851 29.1052 17.1042 28.3057C14.4076 27.5442 13.309 26.0213 13.289 25.9641L13.7965 26.2111C14.0999 26.3588 14.4109 26.4927 14.7283 26.6107ZM17.8633 24.9552C16.5649 24.9171 15.5462 23.8701 15.5861 22.6136C15.6261 21.4334 16.6249 20.4815 17.8633 20.4434C19.1617 20.4815 20.1804 21.5285 20.1405 22.785C20.0805 23.9653 19.1017 24.9172 17.8633 24.9552ZM26.0131 24.9552C24.7147 24.9171 23.696 23.8701 23.7359 22.6136C23.7759 21.4334 24.7747 20.4815 26.0131 20.4434C27.3115 20.4815 28.3302 21.5285 28.2903 22.785C28.2503 23.9653 27.2515 24.9172 26.0131 24.9552Z" fill="white"/>
</g>
<defs>
<filter id="filter0_d_4002_11866" x="5" y="13" width="34" height="25" filterUnits="userSpaceOnUse" color-interpolation-filters="sRGB">
<feFlood flood-opacity="0" result="BackgroundImageFix"/>
<feColorMatrix in="SourceAlpha" type="matrix" values="0 0 0 0 0 0 0 0 0 0 0 0 0 0 0 0 0 0 127 0" result="hardAlpha"/>
<feOffset dy="4"/>
<feGaussianBlur stdDeviation="2"/>
<feComposite in2="hardAlpha" operator="out"/>
<feColorMatrix type="matrix" values="0 0 0 0 0 0 0 0 0 0 0 0 0 0 0 0 0 0 0.1 0"/>
<feBlend mode="normal" in2="BackgroundImageFix" result="effect1_dropShadow_4002_11866"/>
<feBlend mode="normal" in="SourceGraphic" in2="effect1_dropShadow_4002_11866" result="shape"/>
</filter>
<linearGradient id="paint0_linear_4002_11866" x1="21.5" y1="0" x2="21.5" y2="43" gradientUnits="userSpaceOnUse">
<stop stop-color="#A384FF"/>
<stop offset="1" stop-color="#702AFD"/>
</linearGradient>
</defs>
</svg>
