<svg width="43" height="43" viewBox="0 0 43 43" fill="none" xmlns="http://www.w3.org/2000/svg">
<g opacity="0.8">
<mask id="path-1-inside-1_4002_11865" fill="white">
<path d="M0 10C0 4.47715 4.47715 0 10 0H33C38.5228 0 43 4.47715 43 10V33C43 38.5228 38.5228 43 33 43H10C4.47715 43 0 38.5228 0 33V10Z"/>
</mask>
<path d="M0 10C0 4.47715 4.47715 0 10 0H33C38.5228 0 43 4.47715 43 10V33C43 38.5228 38.5228 43 33 43H10C4.47715 43 0 38.5228 0 33V10Z" fill="url(#paint0_linear_4002_11865)"/>
<path d="M0 10C0 3.92487 4.92487 -1 11 -1H32C38.0751 -1 43 3.92487 43 10C43 5.02944 38.5228 1 33 1H10C4.47715 1 0 5.02944 0 10ZM43 43H0H43ZM0 43V0V43ZM43 0V43V0Z" fill="#52B4F1" mask="url(#path-1-inside-1_4002_11865)"/>
</g>
<path d="M34.8568 28.5466C34.8241 28.478 34.7936 28.4211 34.7653 28.3755C34.2969 27.554 33.4017 26.5456 32.0803 25.3502L32.0524 25.3228L32.0384 25.3094L32.0243 25.2956H32.0101C31.4104 24.7389 31.0306 24.3646 30.8715 24.173C30.5806 23.8079 30.5154 23.4384 30.6744 23.064C30.7868 22.7812 31.2088 22.1838 31.9396 21.271C32.324 20.7873 32.6285 20.3997 32.8533 20.1076C34.4747 18.0086 35.1777 16.6673 34.962 16.0832L34.8783 15.9467C34.822 15.8645 34.6767 15.7893 34.4427 15.7208C34.2081 15.6524 33.9083 15.641 33.5427 15.6866L29.4942 15.7139C29.4286 15.6912 29.335 15.6934 29.213 15.7208C29.0911 15.7482 29.0302 15.762 29.0302 15.762L28.9597 15.7962L28.9038 15.8374C28.8569 15.8647 28.8053 15.9126 28.7491 15.981C28.6931 16.0492 28.6462 16.1293 28.6088 16.2205C28.168 17.3248 27.6669 18.3514 27.1045 19.3004C26.7577 19.8663 26.4392 20.3567 26.1484 20.7719C25.8579 21.1871 25.6142 21.4929 25.4176 21.6889C25.2206 21.8852 25.0429 22.0424 24.8832 22.1611C24.7239 22.2799 24.6022 22.3301 24.518 22.3118C24.4335 22.2934 24.354 22.2752 24.2787 22.257C24.1476 22.1748 24.0421 22.063 23.9626 21.9216C23.8827 21.7802 23.829 21.6022 23.8009 21.3877C23.7729 21.1731 23.7563 20.9885 23.7516 20.8333C23.7472 20.6783 23.7493 20.4591 23.7588 20.1762C23.7685 19.8932 23.7729 19.7017 23.7729 19.6013C23.7729 19.2545 23.7798 18.8781 23.7938 18.472C23.8079 18.0659 23.8194 17.7441 23.829 17.5071C23.8386 17.2698 23.843 17.0188 23.843 16.7541C23.843 16.4895 23.8265 16.2819 23.7938 16.1313C23.7615 15.9808 23.7119 15.8348 23.6465 15.6932C23.5808 15.5518 23.4846 15.4424 23.3584 15.3647C23.2319 15.2871 23.0746 15.2256 22.8874 15.1798C22.3907 15.0704 21.7581 15.0112 20.9895 15.0019C19.2464 14.9837 18.1264 15.0933 17.6297 15.3306C17.4329 15.4309 17.2548 15.5678 17.0956 15.7411C16.9268 15.9419 16.9033 16.0515 17.0251 16.0696C17.5875 16.1516 17.9856 16.3478 18.2199 16.6581L18.3044 16.8225C18.3701 16.9411 18.4357 17.1511 18.5013 17.4522C18.5668 17.7533 18.6091 18.0863 18.6277 18.4512C18.6745 19.1175 18.6745 19.6878 18.6277 20.1623C18.5808 20.6369 18.5365 21.0064 18.4942 21.2711C18.4519 21.5358 18.3887 21.7502 18.3044 21.9144C18.2199 22.0787 18.1638 22.1791 18.1356 22.2155C18.1075 22.2519 18.084 22.2749 18.0654 22.2839C17.9436 22.3294 17.8169 22.3525 17.6858 22.3525C17.5545 22.3525 17.3953 22.2886 17.2079 22.1608C17.0205 22.0329 16.8261 21.8574 16.6245 21.6337C16.423 21.4101 16.1957 21.0975 15.9426 20.6961C15.6897 20.2946 15.4272 19.8201 15.1554 19.2725L14.9306 18.8755C14.79 18.62 14.598 18.2481 14.3543 17.7599C14.1105 17.2716 13.8949 16.7993 13.7076 16.343C13.6327 16.1514 13.5202 16.0055 13.3703 15.9051L13.2999 15.8639C13.2531 15.8275 13.178 15.7888 13.075 15.7475C12.9719 15.7063 12.8643 15.6768 12.7517 15.6586L8.89987 15.6859C8.50626 15.6859 8.2392 15.7727 8.09857 15.9461L8.0423 16.0281C8.01418 16.0738 8 16.1468 8 16.2473C8 16.3476 8.02811 16.4709 8.08439 16.6168C8.64669 17.9036 9.25817 19.1446 9.91885 20.3401C10.5795 21.5355 11.1536 22.4985 11.6408 23.2281C12.1281 23.9582 12.6249 24.6473 13.131 25.2951C13.6371 25.943 13.9721 26.3583 14.136 26.5407C14.3001 26.7235 14.429 26.8601 14.5227 26.9513L14.8742 27.2798C15.0992 27.4989 15.4294 27.7612 15.8652 28.0669C16.3011 28.3727 16.7837 28.6738 17.3132 28.9706C17.8428 29.267 18.4589 29.5088 19.1619 29.6958C19.8648 29.883 20.5489 29.9582 21.2143 29.9219H22.831C23.1589 29.8944 23.4073 29.794 23.5761 29.6207L23.6321 29.5521C23.6697 29.4976 23.7049 29.413 23.7374 29.2991C23.7703 29.1851 23.7866 29.0594 23.7866 28.9227C23.777 28.5304 23.8077 28.1768 23.8778 27.862C23.9479 27.5473 24.0277 27.31 24.1171 27.1502C24.2063 26.9906 24.3071 26.8558 24.4192 26.7466C24.5315 26.6372 24.6116 26.5709 24.6586 26.548C24.7053 26.5251 24.7425 26.5095 24.7706 26.5001C24.9956 26.4272 25.2603 26.4978 25.5651 26.7125C25.8698 26.9269 26.1555 27.1917 26.4228 27.5064C26.6899 27.8214 27.0108 28.1748 27.3856 28.5672C27.7607 28.9596 28.0886 29.2514 28.3696 29.4433L28.6507 29.6076C28.8384 29.7172 29.0821 29.8176 29.382 29.9088C29.6814 30 29.9438 30.0228 30.169 29.9772L33.7677 29.9226C34.1236 29.9226 34.4006 29.8652 34.597 29.7513C34.7939 29.6372 34.9108 29.5116 34.9485 29.3749C34.9862 29.2381 34.9882 29.0828 34.9557 28.9092C34.9223 28.7361 34.8895 28.6151 34.8568 28.5466Z" fill="white"/>
<defs>
<linearGradient id="paint0_linear_4002_11865" x1="21.5" y1="0" x2="21.5" y2="43" gradientUnits="userSpaceOnUse">
<stop stop-color="#3C69FF"/>
<stop offset="1" stop-color="#4E6AF5"/>
</linearGradient>
</defs>
</svg>
