<svg width="30" height="30" viewBox="0 0 30 30" fill="none" xmlns="http://www.w3.org/2000/svg">
<rect width="30" height="30" rx="2" fill="url(#paint0_linear_440_16654)"/>
<path d="M7.44727 19.708H23.5828V21.1111H7.44727V19.708Z" fill="white"/>
<path d="M22.0968 13.6705L21.2739 9.28027L18.3516 12.7866L19.5242 15.0245L22.0968 13.6705Z" fill="white"/>
<path d="M12.6847 12.7866L9.76237 9.28027L8.93945 13.6705L11.512 15.0245L12.6847 12.7866Z" fill="white"/>
<path d="M15.518 16.2003C15.9054 16.2003 16.2195 15.7292 16.2195 15.148C16.2195 14.5668 15.9054 14.0957 15.518 14.0957C15.1305 14.0957 14.8164 14.5668 14.8164 15.148C14.8164 15.7292 15.1305 16.2003 15.518 16.2003Z" fill="white"/>
<path d="M19.5386 15.8094C19.4978 15.8309 19.4531 15.8442 19.4072 15.8484C19.3612 15.8526 19.3149 15.8477 19.2708 15.834C19.2268 15.8203 19.1859 15.798 19.1504 15.7684C19.115 15.7389 19.0857 15.7026 19.0643 15.6617L15.5166 8.88867L11.9689 15.6617C11.9475 15.7026 11.9183 15.7389 11.8828 15.7684C11.8474 15.798 11.8065 15.8203 11.7624 15.834C11.7184 15.8477 11.6721 15.8526 11.6261 15.8484C11.5802 15.8442 11.5355 15.8309 11.4947 15.8094L5.55469 12.6837L7.36257 19.0067H23.6707L25.4786 12.6837L19.5386 15.8094ZM15.5166 16.9021C14.7428 16.9021 14.1135 16.1153 14.1135 15.1482C14.1135 14.1811 14.7428 13.3943 15.5166 13.3943C16.2904 13.3943 16.9197 14.1811 16.9197 15.1482C16.9197 16.1153 16.2904 16.9021 15.5166 16.9021Z" fill="white"/>
<defs>
<linearGradient id="paint0_linear_440_16654" x1="15" y1="0" x2="15" y2="30" gradientUnits="userSpaceOnUse">
<stop stop-color="#3856F3"/>
<stop offset="1" stop-color="#5144C9"/>
</linearGradient>
</defs>
</svg>
