<svg width="37" height="36" viewBox="0 0 37 36" fill="none" xmlns="http://www.w3.org/2000/svg">
<rect x="0.139648" width="36" height="36" rx="7" fill="url(#paint0_linear_2041_581)"/>
<path d="M26.048 7H9.95195C9.16932 7.00088 8.41898 7.31217 7.86557 7.86557C7.31217 8.41898 7.00088 9.16932 7 9.95195L7 26.048C7.00089 26.8307 7.31218 27.581 7.86559 28.1344C8.41899 28.6878 9.16932 28.9991 9.95195 29H26.048C26.8307 28.9991 27.581 28.6878 28.1344 28.1344C28.6878 27.581 28.9991 26.8307 29 26.048V9.95195C28.9991 9.16932 28.6878 8.41898 28.1344 7.86557C27.581 7.31217 26.8307 7.00088 26.048 7ZM27.9688 26.048C27.9682 26.5573 27.7656 27.0455 27.4055 27.4055C27.0455 27.7656 26.5573 27.9682 26.048 27.9688H9.95195C9.44273 27.9682 8.95453 27.7656 8.59445 27.4055C8.23438 27.0455 8.03183 26.5573 8.03125 26.048V9.95195C8.03182 9.44273 8.23436 8.95452 8.59444 8.59444C8.95452 8.23436 9.44273 8.03182 9.95195 8.03125H26.048C26.5573 8.03182 27.0455 8.23436 27.4056 8.59444C27.7656 8.95452 27.9682 9.44273 27.9688 9.95195V26.048ZM18.3646 11.985C18.2679 11.8883 18.1367 11.834 18 11.834C17.8633 11.834 17.7321 11.8883 17.6354 11.985L12.5344 17.0861C12.351 17.2699 12.248 17.5189 12.248 17.7785C12.248 18.0381 12.351 18.2872 12.5344 18.471L13.0789 19.0155C13.2628 19.1989 13.5118 19.3018 13.7714 19.3018C14.031 19.3018 14.2801 19.1989 14.4639 19.0155L18.0002 15.4792L21.5365 19.0155C21.7204 19.1989 21.9694 19.3018 22.229 19.3018C22.4886 19.3018 22.7377 19.1989 22.9215 19.0155L23.4656 18.471C23.649 18.2872 23.7519 18.0381 23.7519 17.7785C23.7519 17.5189 23.649 17.2699 23.4656 17.0861L18.3646 11.985ZM22.2286 18.2499L18.3646 14.3858C18.2679 14.2891 18.1367 14.2348 18 14.2348C17.8633 14.2348 17.7321 14.2891 17.6354 14.3858L13.7714 18.2496L13.3003 17.7785L18 13.0788L22.6997 17.7785L22.2286 18.2499ZM18.3646 16.8494C18.2679 16.7527 18.1367 16.6984 18 16.6984C17.8633 16.6984 17.7321 16.7527 17.6354 16.8494L12.5344 21.9502C12.351 22.1341 12.248 22.3831 12.248 22.6427C12.248 22.9023 12.351 23.1514 12.5344 23.3352L13.079 23.8798C13.2628 24.0631 13.5118 24.1661 13.7714 24.1661C14.031 24.1661 14.2801 24.0631 14.4639 23.8798L18.0002 20.3434L21.5365 23.8798C21.7203 24.0631 21.9694 24.1661 22.229 24.1661C22.4886 24.1661 22.7377 24.0631 22.9215 23.8798L23.4656 23.3351C23.6489 23.1513 23.7519 22.9023 23.7519 22.6427C23.7519 22.3831 23.6489 22.1341 23.4656 21.9502L18.3646 16.8494ZM22.2286 23.1142L18.3646 19.2502C18.2679 19.1535 18.1367 19.0992 18 19.0992C17.8633 19.0992 17.7321 19.1535 17.6354 19.2502L13.7714 23.1142L13.3002 22.6431L18 17.943L22.6997 22.6427L22.2286 23.1142Z" fill="white"/>
<defs>
<linearGradient id="paint0_linear_2041_581" x1="18.1396" y1="0" x2="18.1396" y2="36" gradientUnits="userSpaceOnUse">
<stop stop-color="#1EB8E0"/>
<stop offset="1" stop-color="#2967DC"/>
</linearGradient>
</defs>
</svg>
