<svg width="37" height="36" viewBox="0 0 37 36" fill="none" xmlns="http://www.w3.org/2000/svg">
<rect x="0.769531" width="36" height="36" rx="7" fill="url(#paint0_linear_2041_586)"/>
<g filter="url(#filter0_i_2041_586)">
<path d="M20.973 25.455C20.4561 25.455 19.9681 25.2141 19.4962 24.9811C19.1349 24.8027 18.7613 24.6182 18.5001 24.6182C18.2389 24.6182 17.8653 24.8027 17.504 24.9811C17.0321 25.2141 16.5441 25.455 16.0273 25.455C15.8651 25.455 15.7084 25.4305 15.5614 25.3822C14.8582 25.1511 14.5019 24.4675 14.1874 23.8643C14.0063 23.5171 13.8192 23.158 13.627 23.0164C13.4297 22.8711 13.0301 22.8003 12.6437 22.7319C11.9847 22.6151 11.2376 22.4829 10.8078 21.8852C10.3818 21.2927 10.4866 20.5367 10.5791 19.8696C10.6341 19.4729 10.691 19.0628 10.6134 18.8212C10.5428 18.6011 10.2677 18.3149 10.0015 18.0381C9.5283 17.5458 8.99177 16.9877 8.99177 16.2275C8.99177 15.4673 9.5283 14.9093 10.0015 14.417C10.2676 14.1402 10.5428 13.8541 10.6134 13.6339C10.6909 13.3923 10.634 12.9822 10.579 12.5855C10.4865 11.9185 10.3817 11.1625 10.8077 10.5699C11.2376 9.97213 11.9847 9.83987 12.6437 9.72314C13.0301 9.65473 13.4296 9.58403 13.627 9.43861C13.8192 9.2971 14.0063 8.93801 14.1873 8.59072C14.5017 7.98754 14.8581 7.30387 15.5614 7.07273C15.7083 7.02445 15.865 7 16.0273 7C16.5441 7 17.0321 7.24086 17.504 7.47387C17.8654 7.65224 18.2389 7.83673 18.5001 7.83673C18.7612 7.83673 19.1349 7.65224 19.4962 7.47387C19.9681 7.2409 20.4561 7 20.9729 7C21.1351 7 21.2919 7.02445 21.4388 7.07273C22.142 7.30387 22.4984 7.98754 22.8128 8.59072C22.9938 8.93797 23.181 9.29701 23.3732 9.43861C23.5706 9.58403 23.9701 9.65473 24.3564 9.72314C25.0155 9.83987 25.7626 9.97213 26.1923 10.5698C26.6184 11.1623 26.5135 11.9184 26.4211 12.5854C26.3661 12.9821 26.3091 13.3923 26.3867 13.6338C26.4573 13.854 26.7325 14.1402 26.9986 14.417C27.4719 14.9093 28.0083 15.4673 28.0083 16.2275C28.0083 16.9877 27.4718 17.5458 26.9986 18.0381C26.7325 18.3148 26.4573 18.601 26.3867 18.8212C26.3092 19.0627 26.3661 19.4729 26.4211 19.8695C26.5136 20.5365 26.6184 21.2926 26.1924 21.8851C25.7625 22.4828 25.0155 22.6151 24.3564 22.7319C23.97 22.8003 23.5705 22.871 23.3732 23.0164C23.181 23.1579 22.9938 23.517 22.8129 23.8643C22.4985 24.4675 22.1421 25.1511 21.4388 25.3823C21.2919 25.4305 21.1352 25.455 20.973 25.455ZM18.5001 23.3856C19.0424 23.3856 19.5445 23.6335 20.0301 23.8732C20.3778 24.0448 20.7373 24.2223 20.9729 24.2223C21.0077 24.2223 21.0371 24.2182 21.0627 24.2098C21.2956 24.1333 21.5294 23.6848 21.7357 23.2891C21.9815 22.8174 22.2358 22.3296 22.6565 22.0196C23.0824 21.706 23.6234 21.6102 24.1466 21.5176C24.5784 21.4411 25.0677 21.3545 25.2077 21.1597C25.3439 20.9703 25.2754 20.4765 25.215 20.0408C25.1408 19.5058 25.0641 18.9525 25.2284 18.4404C25.3867 17.9471 25.7624 17.5563 26.1257 17.1783C26.4373 16.8542 26.7904 16.4869 26.7904 16.2275C26.7904 15.9681 26.4373 15.6008 26.1257 15.2767C25.7623 14.8987 25.3866 14.5079 25.2284 14.0145C25.0641 13.5025 25.1408 12.9492 25.215 12.4141C25.2754 11.9785 25.3439 11.4847 25.2077 11.2953C25.0677 11.1005 24.5783 11.0139 24.1466 10.9375C23.6234 10.8448 23.0824 10.7491 22.6565 10.4354C22.2357 10.1254 21.9814 9.63771 21.7356 9.166C21.5293 8.77034 21.2955 8.32188 21.0626 8.24525C21.0371 8.23687 21.0077 8.23276 20.9729 8.23276C20.7372 8.23276 20.3778 8.41022 20.0302 8.58188C19.5446 8.82157 19.0424 9.06948 18.5001 9.06948C17.9577 9.06948 17.4556 8.82165 16.97 8.58188C16.6224 8.41026 16.2629 8.23276 16.0273 8.23276C15.9925 8.23276 15.9631 8.23682 15.9375 8.24525C15.7046 8.3218 15.4708 8.77034 15.2645 9.166C15.0187 9.63771 14.7644 10.1254 14.3437 10.4354C13.9178 10.7491 13.3768 10.8448 12.8536 10.9375C12.4218 11.0139 11.9325 11.1006 11.7924 11.2954C11.6563 11.4848 11.7248 11.9786 11.7851 12.4142C11.8594 12.9493 11.9361 13.5026 11.7718 14.0146C11.6135 14.5079 11.2378 14.8988 10.8745 15.2767C10.5629 15.6008 10.2098 15.9681 10.2098 16.2276C10.2098 16.4871 10.5629 16.8544 10.8745 17.1785C11.2379 17.5564 11.6136 17.9473 11.7718 18.4405C11.936 18.9526 11.8594 19.5059 11.7851 20.041C11.7248 20.4766 11.6563 20.9704 11.7925 21.1598C11.9325 21.3546 12.4219 21.4412 12.8536 21.5176C13.3768 21.6103 13.9178 21.7061 14.3436 22.0197C14.7645 22.3297 15.0187 22.8174 15.2646 23.2891C15.4708 23.6848 15.7046 24.1333 15.9375 24.2099C15.9631 24.2183 15.9924 24.2224 16.0273 24.2224C16.2629 24.2224 16.6224 24.0449 16.97 23.8733C17.4556 23.6335 17.9577 23.3856 18.5001 23.3856Z" fill="white"/>
<path d="M18.5001 21.7748C15.4779 21.7748 13.0191 19.2863 13.0191 16.2275C13.0191 13.1687 15.4779 10.6802 18.5001 10.6802C19.7236 10.6802 20.8811 11.0793 21.8473 11.8346C23.2033 12.8943 23.9809 14.4955 23.9809 16.2275C23.9809 19.2863 21.5222 21.7748 18.5001 21.7748ZM18.5001 11.913C16.1495 11.913 14.2371 13.8485 14.2371 16.2275C14.2371 18.6066 16.1495 20.5421 18.5001 20.5421C20.8506 20.5421 22.763 18.6066 22.763 16.2275C22.763 14.8803 22.1579 13.6349 21.1029 12.8103C20.3519 12.2233 19.4518 11.913 18.5001 11.913Z" fill="white"/>
<path d="M12.6534 27.9999C12.3164 27.9999 12.0205 27.7943 11.8996 27.4762C11.3068 25.9163 10.0726 24.6585 8.51749 24.0532C8.26147 23.9535 8.07468 23.7319 8.01775 23.4604C7.96083 23.1888 8.04265 22.9094 8.23661 22.7132L10.024 20.9275C10.5621 20.3899 11.482 20.6641 11.638 21.4085C11.6933 21.6722 11.857 21.9003 12.0891 22.0371L12.9175 22.5252C14.6858 23.5672 14.9924 25.9992 13.538 27.4474L13.2235 27.7606C13.071 27.9149 12.8685 27.9999 12.6534 27.9999ZM10.6374 21.9512C10.1128 22.5184 10.3244 23.4358 11.0444 23.7161L11.5679 23.9199C11.7806 24.0026 11.9497 24.1737 12.0315 24.3892L12.0897 24.5424C12.4278 25.432 13.5703 25.6779 14.2444 25.0061C14.8538 24.3986 14.7242 23.379 13.9821 22.9434L12.3925 22.0103C12.2911 21.9508 12.204 21.8697 12.1373 21.7728C11.8455 21.3485 11.2353 21.3045 10.8857 21.6827L10.6374 21.9512Z" fill="white"/>
<path d="M24.3461 28C24.1345 28 23.93 27.9157 23.7766 27.7606L23.1362 27.1124C22.9004 26.8738 22.9004 26.4898 23.1362 26.2512L23.3281 26.0569C23.4623 25.9211 23.6816 25.9211 23.8158 26.0569C23.9912 26.2344 24.2915 26.171 24.3802 25.9377L24.9687 24.389C25.0505 24.1736 25.2195 24.0025 25.4324 23.9197L25.5278 23.8826C26.4088 23.5397 26.6158 22.3866 25.9092 21.7586L25.6551 21.5328C25.515 21.4083 25.4424 21.2249 25.4592 21.0383C25.5027 20.5556 26.0771 20.3279 26.4395 20.6497L28.7634 22.7133C28.9573 22.9096 29.0392 23.1888 28.9823 23.4603C28.9253 23.7319 28.7386 23.9535 28.4825 24.0532C26.9275 24.6586 25.6932 25.9164 25.1004 27.4763C25.002 27.7353 24.783 27.9244 24.5148 27.9821C24.4587 27.9941 24.4021 28 24.3461 28Z" fill="white"/>
</g>
<defs>
<filter id="filter0_i_2041_586" x="8" y="7" width="21" height="21" filterUnits="userSpaceOnUse" color-interpolation-filters="sRGB">
<feFlood flood-opacity="0" result="BackgroundImageFix"/>
<feBlend mode="normal" in="SourceGraphic" in2="BackgroundImageFix" result="shape"/>
<feColorMatrix in="SourceAlpha" type="matrix" values="0 0 0 0 0 0 0 0 0 0 0 0 0 0 0 0 0 0 127 0" result="hardAlpha"/>
<feOffset dy="1"/>
<feComposite in2="hardAlpha" operator="arithmetic" k2="-1" k3="1"/>
<feColorMatrix type="matrix" values="0 0 0 0 1 0 0 0 0 0.745833 0 0 0 0 0.745833 0 0 0 0.25 0"/>
<feBlend mode="normal" in2="shape" result="effect1_innerShadow_2041_586"/>
</filter>
<linearGradient id="paint0_linear_2041_586" x1="18.7695" y1="0" x2="18.7695" y2="36" gradientUnits="userSpaceOnUse">
<stop stop-color="#8F38EE"/>
<stop offset="1" stop-color="#1969D1"/>
</linearGradient>
</defs>
</svg>
