<svg width="37" height="36" viewBox="0 0 37 36" fill="none" xmlns="http://www.w3.org/2000/svg">
<rect x="0.450195" width="36" height="36" rx="7" fill="url(#paint0_linear_2041_571)"/>
<path d="M28.5625 11.0312H25.2872C25.5351 10.6065 25.6875 10.1199 25.6875 9.59375C25.6875 7.0925 23.8863 6.71875 22.8125 6.71875C21.5259 6.71875 19.5515 8.45022 18.5 10.0171C17.4485 8.45022 15.4741 6.71875 14.1875 6.71875C13.1137 6.71875 11.3125 7.0925 11.3125 9.59375C11.3125 10.1199 11.4649 10.6065 11.7128 11.0312H8.4375C8.04075 11.0312 7.71875 11.3533 7.71875 11.75V16.0625C7.71875 16.4593 8.04075 16.7812 8.4375 16.7812H9.15625V27.5625C9.15625 27.9592 9.47825 28.2812 9.875 28.2812H27.125C27.5225 28.2812 27.8438 27.9592 27.8438 27.5625V16.7812H28.5625C28.96 16.7812 29.2812 16.4593 29.2812 16.0625V11.75C29.2812 11.3533 28.96 11.0312 28.5625 11.0312ZM22.8125 8.15625C24.0214 8.15625 24.25 8.66153 24.25 9.59375C24.25 10.3865 23.6053 11.0312 22.8125 11.0312H19.5177C20.2293 9.90281 22.0197 8.15625 22.8125 8.15625ZM19.9375 15.3438H17.0625V12.4688H18.5H19.9375V15.3438ZM12.75 9.59375C12.75 8.66153 12.9793 8.15625 14.1875 8.15625C14.9803 8.15625 16.7707 9.90281 17.4815 11.0312H14.1875C13.3947 11.0312 12.75 10.3865 12.75 9.59375ZM9.15625 12.4688H15.625V15.3438H9.15625V12.4688ZM10.5938 16.7812H15.625V26.8438H10.5938V16.7812ZM17.0625 26.8438V16.7812H19.9375V26.8438H17.0625ZM26.4062 26.8438H21.375V16.7812H26.4062V26.8438ZM27.8438 15.3438H21.375V12.4688H27.8438V15.3438Z" fill="white"/>
<defs>
<linearGradient id="paint0_linear_2041_571" x1="18.4502" y1="0" x2="18.4502" y2="36" gradientUnits="userSpaceOnUse">
<stop stop-color="#F18D74"/>
<stop offset="1" stop-color="#C744A4"/>
</linearGradient>
</defs>
</svg>
