<svg width="36" height="36" viewBox="0 0 36 36" fill="none" xmlns="http://www.w3.org/2000/svg">
<rect width="36" height="36" rx="7" fill="url(#paint0_linear_2041_548)"/>
<path d="M31.5264 10.9831C30.867 10.8017 30.8342 10.7692 30.6525 10.1123C30.5753 9.83395 30.3194 9.63952 30.0302 9.63952C29.7408 9.63952 29.4849 9.83406 29.4078 10.1124C29.226 10.7691 29.1933 10.8017 28.5339 10.9831C28.2546 11.06 28.0596 11.3157 28.0596 11.6049C28.0596 11.8939 28.2545 12.1496 28.534 12.2267C29.1933 12.4081 29.226 12.4406 29.4078 13.0973C29.485 13.3757 29.7409 13.5702 30.0302 13.5702C30.3193 13.5702 30.5752 13.3758 30.6526 13.0972C30.8343 12.4405 30.867 12.408 31.5268 12.2265C31.8056 12.1495 32.0004 11.8939 32.0004 11.6048C32.0004 11.3158 31.8056 11.0601 31.5264 10.9831ZM30.0293 12.3579C29.8655 11.9787 29.6548 11.7684 29.275 11.6049C29.6548 11.4415 29.8655 11.231 30.0293 10.8518C30.1921 11.2347 30.3991 11.4422 30.7813 11.6049C30.3991 11.7676 30.192 11.9752 30.0293 12.3579Z" fill="white"/>
<path d="M8.46686 6.65162C7.80753 6.47021 7.77483 6.43773 7.59295 5.78092C7.51575 5.50254 7.25988 5.30811 6.97068 5.30811C6.68144 5.30811 6.42546 5.50254 6.34826 5.78103C6.16643 6.43762 6.13379 6.47016 5.47429 6.65162C5.19506 6.72856 5 6.98427 5 7.27341C5 7.56234 5.19496 7.818 5.4744 7.89515C6.13374 8.07661 6.16643 8.10914 6.34826 8.76606C6.42552 9.04444 6.68144 9.23882 6.97063 9.23882C7.25983 9.23882 7.51564 9.04444 7.593 8.76585C7.77483 8.10914 7.80758 8.07655 8.46723 7.89504C8.74609 7.818 8.94084 7.56239 8.94084 7.27346C8.94084 6.98421 8.74599 6.72851 8.46686 6.65162ZM6.96979 8.02656C6.80589 7.64724 6.59527 7.43689 6.21547 7.27336C6.59527 7.10993 6.80594 6.89952 6.96979 6.52026C7.13263 6.90321 7.33956 7.11072 7.72178 7.27341C7.33951 7.43615 7.13258 7.64366 6.96979 8.02656Z" fill="white"/>
<path d="M15.7719 11.1917C15.1876 11.031 15.1661 11.0095 15.005 10.4276C14.9303 10.1585 14.6829 9.97057 14.4034 9.97057C14.1238 9.97057 13.8764 10.1585 13.8017 10.4277C13.6406 11.0094 13.6191 11.0308 13.035 11.1917C12.7649 11.266 12.5762 11.5132 12.5762 11.7929C12.5762 12.0725 12.7647 12.3197 13.0349 12.3941C13.6191 12.5549 13.6406 12.5763 13.8017 13.1583C13.8764 13.4274 14.1239 13.6155 14.4034 13.6155C14.6829 13.6155 14.9303 13.4275 15.005 13.1581C15.1661 12.5763 15.1876 12.555 15.7722 12.3941C16.0419 12.3197 16.2302 12.0726 16.2302 11.793C16.2302 11.5133 16.0418 11.266 15.7719 11.1917ZM14.4034 12.3851C14.2675 12.1023 14.0939 11.9286 13.8111 11.7929C14.0939 11.6572 14.2675 11.4836 14.4034 11.2008C14.5392 11.4835 14.7128 11.6572 14.9955 11.7929C14.7128 11.9286 14.5392 12.1023 14.4034 12.3851Z" fill="white"/>
<path d="M17.81 18.6752C17.2049 18.6752 16.7127 19.1692 16.7127 19.7764C16.7127 20.2369 16.9961 20.6317 17.3967 20.7959V21.8761C17.3967 22.1043 17.5817 22.2894 17.81 22.2894C18.0382 22.2894 18.2232 22.1043 18.2232 21.8761V20.7959C18.6239 20.6317 18.9073 20.2369 18.9073 19.7764C18.9073 19.1691 18.415 18.6752 17.81 18.6752ZM17.81 20.0511C17.6607 20.0511 17.5392 19.9279 17.5392 19.7764C17.5392 19.625 17.6607 19.5017 17.81 19.5017C17.9593 19.5017 18.0808 19.6249 18.0808 19.7764C18.0807 19.9279 17.9592 20.0511 17.81 20.0511Z" fill="white"/>
<path d="M29.451 14.9653L28.0672 12.8362C27.9131 12.5994 27.6543 12.4574 27.3737 12.455V9.2988C27.3737 8.91895 27.0647 8.61003 26.6849 8.61003H20.9655V8.00211C20.9655 7.62232 20.6565 7.31335 20.2767 7.31335H15.3425C14.9626 7.31335 14.6537 7.62232 14.6537 8.00211V8.61003H8.9344C8.55461 8.61003 8.24564 8.919 8.24564 9.2988V14.3565L7.21099 15.3912C7.03016 15.5719 6.95407 15.8298 7.00738 16.081L7.30591 17.4883C7.06397 17.5952 6.89453 17.8372 6.89453 18.1183V27.6459C6.89453 28.0257 7.2035 28.3346 7.58329 28.3346H7.96673V29.0026C7.96673 29.3824 8.2757 29.6914 8.65549 29.6914H10.5599C10.9397 29.6914 11.2487 29.3824 11.2487 29.0026V28.3346H24.3706V29.0026C24.3706 29.3824 24.6796 29.6914 25.0594 29.6914H26.9638C27.3435 29.6914 27.6525 29.3824 27.6525 29.0026V28.3346H28.036C28.4158 28.3346 28.7247 28.0257 28.7247 27.6459V18.1183C28.7247 17.7912 28.4953 17.5172 28.1891 17.4473L29.3978 15.9629C29.6311 15.6762 29.6525 15.2753 29.451 14.9653ZM26.8287 13.2813L26.2328 14.1981L25.6369 13.2813H26.8287ZM22.2077 15.8696H22.8983L23.404 17.4295H22.8824C22.9555 16.8409 22.7117 16.2354 22.2077 15.8696ZM15.7728 23.6933H19.8465C20.2263 23.6933 20.5352 23.3843 20.5352 23.0045V19.8711H26.2924V25.8929H9.32685V19.8711H15.084V23.0045C15.084 23.3843 15.393 23.6933 15.7728 23.6933ZM19.7087 18.256V22.8668H15.9105V18.256H19.7087ZM16.8102 14.729L16.5453 14.4639H17.2039L17.7612 15.0216C17.6873 15.0858 17.6186 15.1563 17.5567 15.2328C17.3595 15.0012 17.1012 14.8257 16.8102 14.729ZM18.0262 16.1272C18.1009 15.7295 18.4465 15.4409 18.8479 15.4409C18.8999 15.4409 18.9526 15.4458 19.0043 15.4556C19.4585 15.5418 19.7582 15.9835 19.6722 16.4404C19.5976 16.838 19.252 17.1265 18.8508 17.1265C18.7987 17.1265 18.7461 17.1216 18.6941 17.1117C18.2399 17.0256 17.9402 16.584 18.0262 16.1272ZM19.6211 14.8053L19.9899 14.4361C19.9907 14.4353 19.9914 14.4344 19.9922 14.4336H20.651L20.0028 15.0823C19.8904 14.9733 19.7623 14.8796 19.6211 14.8053ZM19.9704 13.6071L19.0072 12.6431V11.984L20.629 13.6071L19.9704 13.6071ZM19.2259 14.0313L18.6282 14.6294C18.6019 14.6329 18.5758 14.6369 18.5499 14.6416L17.9401 14.0313L18.583 13.3879L19.2259 14.0313ZM18.1807 12.6215C18.1795 12.6226 18.1783 12.6236 18.1771 12.6248L17.1767 13.626C17.173 13.6297 17.17 13.6337 17.1664 13.6374H16.5067L18.1807 11.962V12.6215ZM17.1116 16.1477C17.2029 16.6034 16.9086 17.0487 16.4555 17.1403C16.4005 17.1515 16.3446 17.1571 16.2892 17.1571C15.8926 17.1571 15.5478 16.8727 15.4692 16.4807C15.3778 16.025 15.6721 15.5797 16.1254 15.4881C16.1805 15.4769 16.2364 15.4713 16.2918 15.4713C16.6882 15.4713 17.033 15.7558 17.1116 16.1477ZM20.5277 16.7643C20.6828 16.5224 20.9466 16.378 21.2333 16.378C21.3931 16.378 21.5492 16.4242 21.6847 16.5118C21.996 16.7128 22.1298 17.0874 22.043 17.4295H20.4219C20.3658 17.2103 20.3963 16.9694 20.5277 16.7643ZM21.2304 15.043L22.1535 13.6228L23.0204 14.9565L22.9642 15.0431L21.2304 15.043ZM22.9174 13.2813H24.1091L23.5132 14.1981L22.9174 13.2813ZM24.873 13.6226L25.7399 14.9564L25.6835 15.0432H24.0625L24.0061 14.9565L24.873 13.6226ZM15.4803 8.13991H20.139V8.61009H15.4803V8.13991ZM9.07204 9.43659H26.5472V12.4548H22.3797C22.0961 12.4548 21.8341 12.5974 21.6788 12.8364L21.4221 13.2314L19.1024 10.9098C18.9637 10.771 18.7793 10.6945 18.5831 10.6945C18.3867 10.6945 18.2023 10.7709 18.0636 10.9097L15.4634 13.5121C15.3249 13.6508 15.2486 13.8352 15.2486 14.0312C15.2486 14.2276 15.325 14.412 15.4635 14.5506L15.6763 14.7636C15.1997 14.9532 14.8446 15.3509 14.6988 15.8269C14.465 15.7049 14.2021 15.6381 13.9291 15.6381C13.8064 15.6381 13.685 15.6517 13.5667 15.6782L13.3378 13.4427C13.3038 13.1118 13.0623 12.8431 12.7368 12.7741L10.738 12.3499C10.6863 12.339 10.6335 12.3334 10.5808 12.3334C10.3793 12.3334 10.1902 12.4117 10.0484 12.5536L9.07199 13.5299L9.07204 9.43659ZM14.7588 17.4295H13.1025C13.0573 17.1161 13.1894 16.7898 13.4693 16.604C13.6067 16.513 13.7657 16.4648 13.9292 16.4648C14.2117 16.4648 14.4733 16.606 14.629 16.8425C14.7474 17.0223 14.7877 17.2314 14.7588 17.4295ZM11.9268 16.8292L12.2332 17.4295H11.7996L10.1361 16.5805L11.2377 15.4789L11.4596 15.9136C11.5327 16.0568 11.6777 16.1391 11.828 16.1391C11.8912 16.1391 11.9554 16.1246 12.0156 16.0939C12.2189 15.9901 12.2995 15.7412 12.1958 15.538L11.8521 14.8645L12.5783 14.1383L12.7796 16.103C12.7036 16.1759 12.6359 16.255 12.5763 16.339C12.4527 16.224 12.2661 16.192 12.1071 16.2731C11.9037 16.3769 11.823 16.6259 11.9268 16.8292ZM9.68228 15.8655L9.45595 14.7988L10.5226 15.0251L9.68228 15.8655ZM9.98139 17.4295H9.2872L9.52176 17.195L9.98139 17.4295ZM9.754 14.0171L10.2218 13.5493L10.3477 14.1431L9.754 14.0171ZM11.0035 13.2513L12.0701 13.4776L11.2297 14.318L11.0035 13.2513ZM8.67426 15.0969L8.80025 15.6906L8.20651 15.5646L8.67426 15.0969ZM8.97517 16.5726L8.13484 17.413L7.90856 16.3464L8.97517 16.5726ZM10.4222 28.865H8.79329V28.3347H10.4222V28.865ZM26.826 28.865H25.1972V28.3347H26.826V28.865ZM27.8982 27.5082H7.72104V18.256H15.084V19.0446H9.18911C8.80932 19.0446 8.50035 19.3536 8.50035 19.7334V26.0307C8.50035 26.4105 8.80932 26.7194 9.18911 26.7194H26.4302C26.81 26.7194 27.119 26.4105 27.119 26.0307V19.7334C27.119 19.3536 26.81 19.0446 26.4302 19.0446H20.5352V18.256H27.8982V27.5082ZM27.1377 17.4295H24.2729L23.7672 15.8697H25.9789L25.7493 16.5778C25.679 16.7949 25.798 17.028 26.015 17.0984C26.0573 17.1121 26.1003 17.1187 26.1425 17.1187C26.3168 17.1187 26.4789 17.0075 26.5356 16.8327L26.8478 15.8697H28.4078L27.1377 17.4295ZM26.7821 15.043L26.7258 14.9564L27.5926 13.6226L28.5157 15.043L26.7821 15.043Z" fill="white"/>
<path d="M9.51887 29.003V27.9217H8.38086V29.003C8.38086 29.1545 8.50484 29.2785 8.65634 29.2785H9.79435C9.64285 29.2785 9.51887 29.1545 9.51887 29.003Z" fill="white"/>
<defs>
<linearGradient id="paint0_linear_2041_548" x1="18" y1="0" x2="18" y2="36" gradientUnits="userSpaceOnUse">
<stop stop-color="#E171E4"/>
<stop offset="1" stop-color="#8030ED"/>
</linearGradient>
</defs>
</svg>
