<svg width="37" height="36" viewBox="0 0 37 36" fill="none" xmlns="http://www.w3.org/2000/svg">
<rect x="0.19043" width="36" height="36" rx="7" fill="url(#paint0_linear_2041_590)"/>
<g clip-path="url(#clip0_2041_590)">
<g filter="url(#filter0_i_2041_590)">
<path d="M18.5705 13.667C15.8133 13.667 13.5703 15.91 13.5703 18.6669C13.5703 21.424 15.8133 23.667 18.5705 23.667C21.3273 23.667 23.5704 21.424 23.5704 18.6669C23.5704 15.9098 21.3273 13.667 18.5705 13.667ZM20.4561 19.6614C20.5185 20.4522 19.7232 21.0298 18.9902 20.7263C18.7299 20.6185 18.4373 20.6185 18.177 20.7263C17.4439 21.0299 16.6487 20.4523 16.7109 19.6613C16.733 19.3804 16.6426 19.1022 16.4596 18.8879C15.9443 18.2845 16.248 17.3496 17.0196 17.1644C17.2936 17.0986 17.5303 16.9266 17.6775 16.6863C18.0921 16.0098 19.075 16.0098 19.4896 16.6863C19.6368 16.9266 19.8735 17.0986 20.1475 17.1644C20.9191 17.3496 21.2227 18.2845 20.7074 18.8878C20.5243 19.1021 20.4339 19.3804 20.4561 19.6614Z" fill="white"/>
</g>
<g filter="url(#filter1_i_2041_590)">
<path d="M27.0179 25.3356C27.1382 24.7493 27.4834 24.2331 27.9795 23.8982C28.7399 23.3848 29.1202 22.4665 28.9459 21.5657C28.8323 20.9784 28.9531 20.3694 29.2822 19.8699C29.7865 19.1045 29.7866 18.1112 29.2822 17.3459C28.9531 16.8464 28.8323 16.2373 28.9459 15.65C29.1202 14.7492 28.7399 13.8309 27.9795 13.3176C27.4834 12.9827 27.1382 12.4666 27.0179 11.8803C26.8337 10.9825 26.1311 10.2802 25.2333 10.096C24.6475 9.97582 24.1314 9.63082 23.7967 9.13513L23.7162 9.01587C23.252 8.32835 22.4221 7.98441 21.6077 8.14197L20.6275 8.33159C20.6268 8.33173 20.626 8.33153 20.6255 8.33106C20.6249 8.33058 20.6242 8.33038 20.6235 8.33052L20.5828 8.33849C20.5602 8.34292 20.5368 8.33831 20.5176 8.32563L19.7562 7.82392C19.0067 7.32996 18.0349 7.32996 17.2854 7.82392L16.5243 8.32546C16.5182 8.32953 16.5106 8.331 16.5034 8.32955C16.4961 8.32809 16.4886 8.32957 16.4824 8.33365L16.4783 8.33638C16.4695 8.34217 16.4588 8.34429 16.4485 8.3423L15.5549 8.16944C14.6613 7.99659 13.7483 8.37777 13.239 9.13208C12.9051 9.62659 12.3854 9.97382 11.8009 10.0938C10.8967 10.2793 10.183 10.9917 9.99752 11.8959C9.87725 12.482 9.52868 13.0026 9.0328 13.3374C8.27735 13.8474 7.89465 14.7625 8.06775 15.6574L8.24131 16.5548C8.24275 16.5623 8.24123 16.57 8.23705 16.5763C8.23284 16.5827 8.23132 16.5906 8.23284 16.5981L8.23299 16.5988C8.2346 16.6068 8.23299 16.6151 8.22851 16.6219L7.72509 17.3858C7.23006 18.137 7.23003 19.1109 7.72502 19.8621L8.22551 20.6216C8.23724 20.6394 8.24151 20.6611 8.23741 20.6821L8.23152 20.712C8.23101 20.7147 8.23159 20.7174 8.23312 20.7195C8.23464 20.7217 8.23522 20.7244 8.23472 20.727L8.05874 21.6361C7.89218 22.4966 8.25551 23.3734 8.98187 23.8638L9.03478 23.8996C9.52951 24.2336 9.87398 24.7493 9.99395 25.3341C10.1782 26.2319 10.8806 26.9355 11.7784 27.1198C12.3648 27.2401 12.8809 27.5852 13.2158 28.0813C13.7293 28.8417 14.6475 29.222 15.5483 29.0477C16.1356 28.9341 16.7446 29.0549 17.2441 29.384C18.0095 29.8884 19.0029 29.8884 19.7684 29.384C20.2678 29.0549 20.8769 28.9341 21.4641 29.0477C22.3648 29.222 23.2831 28.8417 23.7964 28.0813C24.1313 27.5853 24.6474 27.24 25.2337 27.1198C26.1315 26.9356 26.8337 26.2334 27.0179 25.3356ZM18.5707 25.5901C14.7531 25.5901 11.6475 22.4843 11.6475 18.667C11.6475 14.8496 14.7531 11.7438 18.5707 11.7438C22.388 11.7438 25.4936 14.8496 25.4936 18.667C25.4936 22.4843 22.388 25.5901 18.5707 25.5901Z" fill="white"/>
</g>
</g>
<defs>
<filter id="filter0_i_2041_590" x="13.5703" y="13.667" width="10" height="10" filterUnits="userSpaceOnUse" color-interpolation-filters="sRGB">
<feFlood flood-opacity="0" result="BackgroundImageFix"/>
<feBlend mode="normal" in="SourceGraphic" in2="BackgroundImageFix" result="shape"/>
<feColorMatrix in="SourceAlpha" type="matrix" values="0 0 0 0 0 0 0 0 0 0 0 0 0 0 0 0 0 0 127 0" result="hardAlpha"/>
<feOffset dy="1"/>
<feComposite in2="hardAlpha" operator="arithmetic" k2="-1" k3="1"/>
<feColorMatrix type="matrix" values="0 0 0 0 1 0 0 0 0 0.745833 0 0 0 0 0.745833 0 0 0 0.25 0"/>
<feBlend mode="normal" in2="shape" result="effect1_innerShadow_2041_590"/>
</filter>
<filter id="filter1_i_2041_590" x="7.35352" y="7.45361" width="22.3066" height="22.3086" filterUnits="userSpaceOnUse" color-interpolation-filters="sRGB">
<feFlood flood-opacity="0" result="BackgroundImageFix"/>
<feBlend mode="normal" in="SourceGraphic" in2="BackgroundImageFix" result="shape"/>
<feColorMatrix in="SourceAlpha" type="matrix" values="0 0 0 0 0 0 0 0 0 0 0 0 0 0 0 0 0 0 127 0" result="hardAlpha"/>
<feOffset dy="1"/>
<feComposite in2="hardAlpha" operator="arithmetic" k2="-1" k3="1"/>
<feColorMatrix type="matrix" values="0 0 0 0 1 0 0 0 0 0.745833 0 0 0 0 0.745833 0 0 0 0.25 0"/>
<feBlend mode="normal" in2="shape" result="effect1_innerShadow_2041_590"/>
</filter>
<linearGradient id="paint0_linear_2041_590" x1="18.1904" y1="0" x2="18.1904" y2="36" gradientUnits="userSpaceOnUse">
<stop stop-color="#EBAE79"/>
<stop offset="1" stop-color="#A44DAA"/>
</linearGradient>
<clipPath id="clip0_2041_590">
<rect width="33" height="23" fill="white" transform="translate(2 7)"/>
</clipPath>
</defs>
</svg>
