<svg width="37" height="36" viewBox="0 0 37 36" fill="none" xmlns="http://www.w3.org/2000/svg">
<rect x="0.730469" width="36" height="36" rx="7" fill="url(#paint0_linear_2041_597)"/>
<path d="M30.4211 8.01586L30.3015 7.69931L29.985 7.57976C28.9663 7.19505 27.8955 7 26.8025 7C24.4003 7 22.1419 7.93546 20.4432 9.6341L18.0349 12.0424L12.6524 12.3035L8.14746 16.8084L12.0317 18.0457L10.5953 19.4819L11.4344 20.321L9.57555 23.1701L14.8306 28.4253L17.6798 26.5665L18.5189 27.4055L19.9552 25.9692L21.1924 29.8534L25.6975 25.3484L25.9585 19.966L28.3668 17.5577C30.8615 15.0629 31.6679 11.3175 30.4211 8.01586ZM10.9467 16.1278L13.3028 13.7717L16.4586 13.6187L13.2241 16.8532L10.9467 16.1278ZM15.0303 26.5064L11.4945 22.9706L12.5169 21.4035L16.5973 25.484L15.0303 26.5064ZM24.2291 24.6981L21.8731 27.0542L21.1476 24.7768L24.3822 21.5422L24.2291 24.6981ZM18.5189 25.2869L12.714 19.4819L21.5025 10.6934C22.9182 9.27771 24.8004 8.4981 26.8025 8.4981C27.5993 8.4981 28.3817 8.62229 29.133 8.86768C30.0045 11.5383 29.306 14.4998 27.3075 16.4983L18.5189 25.2869Z" fill="white"/>
<path d="M25.2246 10.5288C24.6243 10.5288 24.0601 10.7626 23.6357 11.187C22.7595 12.0631 22.7595 13.4887 23.6357 14.3649C24.0601 14.7893 24.6244 15.0231 25.2246 15.0231C25.8248 15.0231 26.3891 14.7893 26.8135 14.3649C27.6897 13.4888 27.6897 12.0632 26.8135 11.187C26.3892 10.7626 25.8248 10.5288 25.2246 10.5288ZM25.7543 13.3056C25.6128 13.4471 25.4247 13.5251 25.2246 13.5251C25.0246 13.5251 24.8365 13.4471 24.695 13.3057C24.4029 13.0136 24.4029 12.5384 24.695 12.2463C24.8365 12.1049 25.0246 12.027 25.2246 12.027C25.4247 12.027 25.6128 12.1049 25.7543 12.2463C26.0463 12.5384 26.0463 13.0136 25.7543 13.3056Z" fill="white"/>
<path d="M7.00098 25.7569L8.69877 24.0591L9.75807 25.1184L8.06028 26.8162L7.00098 25.7569ZM12.2439 31.0002L11.1846 29.9409L12.8824 28.2431L13.9417 29.3024L12.2439 31.0002ZM8.25029 28.6166L10.7532 26.1137L11.8125 27.173L9.30959 29.6759L8.25029 28.6166Z" fill="white"/>
<defs>
<linearGradient id="paint0_linear_2041_597" x1="18.7305" y1="0" x2="18.7305" y2="36" gradientUnits="userSpaceOnUse">
<stop stop-color="#2BE7B6"/>
<stop offset="1" stop-color="#2765D1"/>
</linearGradient>
</defs>
</svg>
