<svg width="37" height="36" viewBox="0 0 37 36" fill="none" xmlns="http://www.w3.org/2000/svg">
<rect x="0.219727" width="36" height="36" rx="7" fill="url(#paint0_linear_2041_576)"/>
<path d="M20.1929 9.87229L21.6172 7H14.3828L15.8071 9.87229C11.4842 10.8802 8.33203 14.7565 8.33203 19.2891C8.33203 24.6226 12.6601 29 18 29C23.3331 29 27.668 24.6289 27.668 19.2891C27.668 14.7542 24.5137 10.8797 20.1929 9.87229ZM19.5391 8.28906L18 11.3929L16.4609 8.28906H19.5391ZM16.1773 19.9336C16.2001 19.998 16.2261 20.0611 16.2554 20.1222L13.4698 22.9077C12.8018 22.0731 12.3593 21.0508 12.2352 19.9336H16.1773ZM12.2352 18.6445C12.3593 17.5273 12.8018 16.505 13.4698 15.6704L16.2554 18.4559C16.2261 18.517 16.2001 18.5801 16.1773 18.6445H12.2352ZM17.1669 21.0337C17.228 21.063 17.291 21.0889 17.3555 21.1118V25.0538C16.2383 24.9297 15.216 24.4872 14.3813 23.8192L17.1669 21.0337ZM17.1669 17.5444L14.3813 14.7589C15.216 14.0909 16.2383 13.6484 17.3555 13.5243V17.4663C17.291 17.4892 17.228 17.5151 17.1669 17.5444ZM18 18.6445C18.3554 18.6445 18.6445 18.9337 18.6445 19.2891C18.6445 19.6445 18.3554 19.9336 18 19.9336C17.6446 19.9336 17.3555 19.6445 17.3555 19.2891C17.3555 18.9337 17.6446 18.6445 18 18.6445ZM18.6445 21.1118C18.709 21.0889 18.772 21.063 18.8331 21.0337L21.6187 23.8192C20.784 24.4872 19.7617 24.9297 18.6445 25.0538V21.1118ZM19.7446 20.1222C19.7739 20.0611 19.7999 19.9895 19.8227 19.925H23.7648C23.6407 21.0421 23.1982 22.0731 22.5302 22.9077L19.7446 20.1222ZM19.8227 18.6445C19.7999 18.5801 19.7739 18.517 19.7446 18.4559L22.5302 15.6704C23.1982 16.505 23.6407 17.5273 23.7648 18.6445H19.8227ZM18.8331 17.5444C18.772 17.5151 18.709 17.4892 18.6445 17.4663V13.5243C19.7617 13.6484 20.784 14.0909 21.6187 14.7589L18.8331 17.5444ZM18 27.7109C13.3799 27.7109 9.62109 23.9329 9.62109 19.2891C9.62109 15.2799 12.5044 11.8213 16.3982 11.0642L16.9964 12.2706C13.5606 12.7596 10.9102 15.7204 10.9102 19.2891C10.9102 23.1984 14.0907 26.3789 18 26.3789C21.9093 26.3789 25.0898 23.1984 25.0898 19.2891C25.0898 15.7204 22.4394 12.7596 19.0036 12.2706L19.6018 11.0642C23.4956 11.8213 26.3789 15.2799 26.3789 19.2891C26.3789 23.9329 22.6201 27.7109 18 27.7109Z" fill="white"/>
<defs>
<linearGradient id="paint0_linear_2041_576" x1="18.2197" y1="0" x2="18.2197" y2="36" gradientUnits="userSpaceOnUse">
<stop stop-color="#E171E4"/>
<stop offset="1" stop-color="#8030ED"/>
</linearGradient>
</defs>
</svg>
